<?xml version="1.0" standalone="no"?>
<!DOCTYPE svg PUBLIC "-//W3C//DTD SVG 1.1//EN" "http://www.w3.org/Graphics/SVG/1.1/DTD/svg11.dtd" >
<svg xmlns="http://www.w3.org/2000/svg">
<metadata></metadata>
<defs>
<font id="playfair_displaybold_italic" horiz-adv-x="1337" >
<font-face units-per-em="2048" ascent="1638" descent="-410" />
<missing-glyph horiz-adv-x="523" />
<glyph unicode="&#xfb01;" horiz-adv-x="1235" d="M-96 -385l385 1402h-176l12 41h175q45 155 109.5 257.5t159.5 163.5q101 66 219.5 94.5t266.5 28.5q142 0 205 -56q43 -34 43 -89t-28.5 -98t-77 -67.5t-106.5 -24.5q-74 0 -113.5 36t-34.5 98q3 65 39.5 108t95.5 59h-23q-149 0 -246 -63q-70 -45 -114 -128.5 t-83 -228.5l-25 -90h298q176 3 297 29l-269 -913q-11 -34 -11 -60q0 -42 39 -42q32 0 63 35t66 126l37 99h39l-52 -150q-40 -113 -118.5 -162t-164.5 -49q-176 0 -176 172q0 68 27 154l211 720h-297l-376 -1373q-166 -3 -296 -29z" />
<glyph unicode="&#xfb02;" horiz-adv-x="1253" d="M-95 -385l381 1402h-173l13 41h171q39 136 89 226.5t123 146.5q145 113 372 113h4q140 1 253 22t222 62l-431 -1454q-8 -27 -8 -50q0 -52 42 -52q66 0 124 161l37 99h38l-51 -150q-40 -116 -113 -163.5t-160 -47.5q-93 0 -138.5 47.5t-45.5 134.5q0 65 24 144l321 1069 q10 31 10 59q0 41 -31 61t-103 20q-68 0 -125 -38q-40 -27 -67 -84t-54 -158l-45 -168h194l-12 -41h-194l-371 -1373q-165 -3 -296 -29z" />
<glyph horiz-adv-x="0" />
<glyph horiz-adv-x="682" />
<glyph unicode="&#xd;" horiz-adv-x="0" />
<glyph unicode=" "  horiz-adv-x="523" />
<glyph unicode="&#x09;" horiz-adv-x="523" />
<glyph unicode="&#xa0;" horiz-adv-x="523" />
<glyph unicode="!" horiz-adv-x="643" d="M50 92q0 55 26 99.5t71 70.5t100 26q66 0 102 -33t36 -92q0 -49 -27 -93t-73 -71.5t-99 -27.5q-64 0 -100 32.5t-36 88.5zM243 408q37 149 53 294t27 342q9 157 18 238q3 80 25 152.5t68.5 120t118.5 47.5q67 0 103 -37t36 -104q0 -15 -1 -23q-9 -89 -52 -195.5 t-128 -279.5q-85 -174 -139.5 -300.5t-91.5 -261.5z" />
<glyph unicode="&#x22;" horiz-adv-x="800" d="M295 1300q0 20 1 30q5 71 49.5 118t111.5 47q49 0 76.5 -26t28.5 -71q0 -50 -25.5 -99.5t-81.5 -131.5q-72 -102 -104 -168h-28q-2 81 -18 196q-10 65 -10 105zM296 999zM628 1300q0 20 1 30q5 71 49.5 118t111.5 47q49 0 76.5 -26t28.5 -71q0 -50 -25.5 -99.5 t-81.5 -131.5q-72 -102 -104 -168h-28q-2 81 -18 196q-10 65 -10 105z" />
<glyph unicode="#" horiz-adv-x="1280" d="M61 506l19 41h300l159 342h-300l17 41h302l140 303h49l-140 -303h334l140 303h49l-140 -303h292l-17 -41h-294l-159 -342h294l-21 -41h-292l-138 -299h-49l138 299h-334l-138 -299h-49l138 299h-300zM429 547h334l159 342h-334z" />
<glyph unicode="$" horiz-adv-x="1249" d="M7 315q0 58 19 106.5t55 76.5t83 28q68 0 107 -48.5t39 -125.5q0 -71 -26.5 -131.5t-68.5 -128.5q48 -37 119 -57l166 599q-74 71 -125 131t-83.5 131t-32.5 149q0 144 69.5 240t177.5 142t229 51l67 242h45l-67 -241q76 -1 140 -14l71 255h45l-74 -265q81 -22 173 -80 q61 -40 97.5 -102t36.5 -138q0 -58 -19 -106.5t-54.5 -76.5t-83.5 -28q-68 0 -107 48.5t-39 125.5q0 71 27 132.5t69 127.5q-44 34 -112 54l-154 -555q101 -90 161.5 -152.5t103 -139.5t42.5 -160q0 -149 -83.5 -244.5t-209 -139.5t-260.5 -49l-67 -242h-45l67 241 q-70 0 -140 12l-70 -253h-46l73 263q-91 24 -180 82q-64 41 -99.5 102.5t-35.5 137.5zM377 26q51 -10 116 -10h25l131 475q-33 35 -113 109zM536 1219q0 -85 76 -181l109 392q-83 -15 -134 -69t-51 -142zM563 20q219 24 219 219q0 101 -98 214zM647 998q37 -41 113 -109 l148 534q-57 12 -125 12h-15z" />
<glyph unicode="%" horiz-adv-x="1630" d="M9 -86l1706 1774l31 -27l-1706 -1774zM229 1128q0 102 61 202.5t166.5 164.5t233.5 64q125 0 194.5 -63t69.5 -175q0 -102 -60.5 -202.5t-165.5 -164.5t-232 -64q-125 0 -196 62.5t-71 175.5zM440 1052q0 -63 18 -97t52 -34q71 0 124 80.5t81 194t28 203.5q0 62 -18 95.5 t-51 33.5q-71 0 -124 -80.5t-81.5 -193.5t-28.5 -202zM763 209q0 102 61 202t166.5 164t232.5 64q125 0 195 -62.5t70 -174.5q0 -102 -60.5 -202.5t-165.5 -164.5t-233 -64q-125 0 -195.5 62.5t-70.5 175.5zM974 133q0 -63 17.5 -97t51.5 -34q71 0 124 80.5t81.5 194 t28.5 203.5q0 61 -18.5 95t-51.5 34q-70 0 -123 -80.5t-81.5 -193.5t-28.5 -202z" />
<glyph unicode="&#x26;" horiz-adv-x="1768" d="M58 421q0 131 68 242.5t192.5 190t290.5 113.5q-90 31 -135 87.5t-45 125.5q0 81 58 139.5t150 88.5t191 30q125 0 191.5 -45t66.5 -120q0 -46 -23.5 -78.5t-60 -48.5t-74.5 -16l1 37q48 0 80 28t32 73q0 49 -40.5 78t-106.5 29q-73 0 -137 -37t-102.5 -103.5 t-38.5 -150.5q0 -58 22 -105q73 12 129 12q74 0 74 -43q0 -21 -19 -32t-45 -11q-48 0 -141 45q-72 -27 -129.5 -90t-90 -150t-32.5 -183q0 -185 123 -282.5t341 -97.5q145 0 270 43t201.5 129t76.5 209q0 122 -76 204l-171 -57q-172 -58 -194 -66q-192 -62 -192 -174 q0 -57 42 -85.5t104 -28.5q80 0 135 40.5t79 86.5l31 -16q-29 -60 -93 -105t-160 -45q-65 0 -120.5 23.5t-90.5 76t-35 133.5q0 246 358 362q17 5 38.5 12t46.5 15q320 104 453 153q79 30 129 55t85 65t35 98q0 51 -27 89.5t-73.5 59.5t-102.5 21q-42 0 -59 -12 q88 -37 88 -119q0 -44 -26 -78t-68.5 -52.5t-88.5 -18.5q-65 0 -106.5 36t-41.5 94q0 53 34.5 93t92.5 62q68 29 166 29q128 0 203 -65t75 -208q0 -105 -43.5 -182t-128 -132.5t-216.5 -102.5q-29 -11 -127 -46q87 -95 87 -234q0 -134 -84.5 -258t-252 -202t-404.5 -78 q-186 0 -330.5 51.5t-226.5 153t-82 245.5z" />
<glyph unicode="'" horiz-adv-x="468" d="M295 1300q0 20 1 30q5 71 49.5 118t111.5 47q49 0 76.5 -26t28.5 -71q0 -50 -25.5 -99.5t-81.5 -131.5q-72 -102 -104 -168h-28q-2 81 -18 196q-10 65 -10 105z" />
<glyph unicode="(" horiz-adv-x="812" d="M72 0zM72 457q0 222 124 443.5t341.5 414.5t495.5 336l20 -27q-222 -160 -376 -339t-239 -401t-85 -493q0 -209 43 -385.5t133 -351.5l-37 -27q-138 128 -228.5 249t-141 264t-50.5 317z" />
<glyph unicode=")" horiz-adv-x="813" d="M-222 -346q222 160 376 339t239 401t85 493q0 209 -43 385.5t-133 351.5l37 27q138 -128 228.5 -249t141 -264t50.5 -317q0 -222 -124 -443.5t-341.5 -414.5t-495.5 -336z" />
<glyph unicode="*" horiz-adv-x="992" d="M182 876q0 65 85 109q37 18 82.5 28.5t125.5 23.5q68 11 124 22q-77 16 -116 23q-79 15 -117.5 25t-63.5 27q-42 27 -42 70q0 36 30 73q39 50 90 50q31 0 61 -20q27 -17 48.5 -46.5t58.5 -90.5q36 -60 62 -99q-1 5 -13 95q-16 108 -16 156q0 32 6 60q13 57 48.5 84 t77.5 27q34 0 55.5 -18t21.5 -55q0 -15 -5 -38q-7 -35 -28 -75.5t-63 -110.5q-49 -84 -69 -120q32 29 100 92t103.5 93.5t68.5 47.5q38 19 70 19q54 0 70 -51q6 -15 6 -32q0 -66 -85 -109q-35 -17 -75 -26.5t-125 -24.5q-77 -12 -129 -23q49 -11 113 -22q79 -15 117.5 -25 t63.5 -27q43 -28 43 -70q0 -36 -30 -73q-39 -50 -91 -50q-30 0 -60 20q-26 18 -48 47t-58 89l-58 92q2 -26 12 -112q12 -89 12 -135q0 -34 -5 -57q-15 -57 -50 -83.5t-77 -26.5q-34 0 -56 17.5t-22 54.5q0 15 5 38q8 37 30.5 79.5t69.5 120.5q37 61 65 111l-97 -89 q-71 -66 -108.5 -98t-71.5 -50q-37 -19 -70 -19q-54 0 -70 51q-6 15 -6 31z" />
<glyph unicode="+" horiz-adv-x="1178" d="M100 696l18 62h477l138 483h73l-137 -483h475l-18 -62h-475l-138 -481h-73l137 481h-477z" />
<glyph unicode="," horiz-adv-x="587" d="M-7 81q0 55 29 102.5t78 76t106 28.5q66 0 101 -38.5t35 -111.5q0 -129 -81.5 -241t-223.5 -176l-10 33q93 47 154.5 119.5t67.5 156.5q-61 -59 -129 -59q-61 0 -94 28.5t-33 81.5z" />
<glyph unicode="-" horiz-adv-x="1036" d="M108 457l45 169h739l-45 -169h-739z" />
<glyph unicode="." horiz-adv-x="571" d="M-1 92q0 55 26 99.5t71 70.5t100 26q66 0 102 -33t36 -92q0 -49 -27 -93t-73 -71.5t-99 -27.5q-64 0 -100 32.5t-36 88.5z" />
<glyph unicode="/" horiz-adv-x="944" d="M-91 -29l1123 1508h67l-1122 -1508h-68z" />
<glyph unicode="0" horiz-adv-x="1273" d="M48 346q0 182 101 354.5t270 280t361 107.5q126 0 216.5 -45t138 -129t47.5 -199q0 -183 -100 -355.5t-267.5 -280.5t-358.5 -108q-125 0 -217 44.5t-141.5 129t-49.5 201.5zM347 305q0 -152 39 -224.5t103 -72.5q113 0 203 112t140.5 287t50.5 353q0 150 -37 220.5 t-99 70.5q-112 0 -203.5 -109.5t-144 -283t-52.5 -353.5z" />
<glyph unicode="1" horiz-adv-x="761" d="M92 779l6 43q139 34 245 77t178 84.5t156 98.5h41l-322 -1082h-289l257 865q-95 -41 -272 -86z" />
<glyph unicode="2" horiz-adv-x="1095" d="M-50 0l10 43q31 24 111 83q171 125 297.5 232t225.5 241.5t99 263.5q0 81 -41 124t-115 43q-80 0 -162.5 -46.5t-136 -120.5t-53.5 -150q0 -51 27.5 -75t90.5 -24q55 0 96.5 20t92.5 64l25 -28q-54 -51 -113 -75t-114 -24q-63 0 -108.5 31t-45.5 109q0 91 67 178 t185.5 142.5t263.5 55.5q100 0 174 -26t114 -74.5t40 -114.5q0 -91 -73 -177.5t-173 -155.5t-253 -161q-140 -85 -179 -114q43 0 165 -26q143 -31 210 -31q81 0 128.5 25t47.5 73q0 63 -76 101l23 27q59 -32 86.5 -73.5t27.5 -101.5q0 -70 -34 -131.5t-105.5 -100 t-178.5 -38.5q-69 0 -195 29q-72 16 -124 24.5t-110 8.5q-61 0 -107 -11.5t-110 -38.5z" />
<glyph unicode="3" horiz-adv-x="1060" d="M-177 -309l10 37q173 11 346.5 79.5t289 192.5t115.5 293q0 82 -32.5 132t-91.5 54q-48 -19 -72 -27t-47 -8q-37 0 -37 21q0 2 2 10q8 38 98 38q25 0 39 -1q111 47 182 131.5t71 192.5q0 87 -50 135.5t-141 48.5q-72 0 -143 -35.5t-117 -92.5t-46 -115q0 -51 27.5 -75 t90.5 -24q68 0 127 31l23 -31q-82 -43 -164 -43q-63 0 -108 31t-45 109q0 75 65 148t176.5 120t242.5 47q102 0 178 -25t117 -71.5t41 -108.5q0 -91 -71.5 -166.5t-180.5 -128t-222 -78.5q177 -3 283.5 -65t106.5 -187q0 -165 -171 -294t-420.5 -200.5t-471.5 -74.5z" />
<glyph unicode="4" horiz-adv-x="1096" d="M-118 94l12 43l982 951h53l-247 -921h267l-20 -73h-266l-103 -383h-289l103 383h-492zM-18 167h412l145 540z" />
<glyph unicode="5" horiz-adv-x="966" d="M-181 -303l11 37q152 1 309 68t260.5 193t103.5 292q0 186 -191 186q-96 0 -202 -55l-20 10l284 633q39 2 71.5 -4t82.5 -19q98 -28 168 -28q65 0 111 20.5t79 71.5l24 -15q-53 -135 -130 -210.5t-175 -75.5q-28 0 -57.5 9t-77.5 28q-84 35 -122 35q-11 0 -16 -1 l-190 -410q134 73 316 73q178 0 264.5 -64.5t86.5 -179.5q0 -179 -159.5 -312t-391 -204.5t-439.5 -77.5z" />
<glyph unicode="6" horiz-adv-x="1160" d="M56 348q0 281 174 527t424 406.5t462 197.5l13 -41q-189 -51 -368.5 -215.5t-294 -417.5t-114.5 -554q0 -92 12.5 -144.5t35.5 -73.5t59 -21q87 0 158 100t112 244t41 264q0 181 -101 181q-52 0 -102 -51t-84 -161l-34 11q85 297 334 297q85 0 150.5 -35.5t102.5 -105.5 t37 -169q0 -158 -91 -300.5t-244 -229t-330 -86.5q-352 0 -352 377z" />
<glyph unicode="7" horiz-adv-x="1031" d="M86 784q0 74 34 139t106 106t181 41q60 0 112 -11t132 -35q83 -25 140.5 -37t126.5 -12q59 0 102.5 17.5t77.5 65.5h57l-118 -136q-166 -191 -258 -310.5t-169 -269.5t-126 -342q-17 -68 -26 -119q-3 -23 -8 -43q-14 -62 -61 -101.5t-122 -39.5q-122 0 -122 114 q0 32 10 74q30 130 132.5 277.5t226.5 279t312 315.5q154 150 210 210q-107 -71 -166.5 -105.5t-119 -55t-123.5 -20.5q-50 0 -88.5 9t-89.5 26q-84 30 -140 30q-67 0 -108 -30.5t-41 -91.5q0 -147 247 -207l-11 -33q-310 62 -310 295z" />
<glyph unicode="8" horiz-adv-x="1177" d="M-5 239q0 155 149 283.5t368 215.5q-64 61 -104 107.5t-66.5 105.5t-26.5 130q0 116 76 207t200 141t264 50q152 0 247 -56t95 -164q0 -220 -435 -427l30 -27q75 -68 120.5 -117.5t76.5 -114.5t31 -145q0 -130 -86 -234.5t-229 -163.5t-307 -59q-115 0 -206 29t-144 89 t-53 150zM285 211q0 -97 35.5 -150t117.5 -53q77 0 147 46t113.5 125t43.5 173q0 77 -28 140t-70 112t-110 114q-72 -54 -128.5 -133.5t-88.5 -176t-32 -197.5zM576 1152q0 -87 42.5 -156t120.5 -143q79 76 130 189t51 232q0 168 -115 168q-59 0 -111.5 -40t-85 -107 t-32.5 -143z" />
<glyph unicode="9" horiz-adv-x="1135" d="M4 -344q182 49 357 209.5t286.5 406.5t111.5 536q0 92 -12.5 144.5t-35.5 73.5t-59 21q-86 0 -157.5 -100t-112 -244t-40.5 -264q0 -181 101 -181q52 0 102 51.5t84 160.5l34 -11q-85 -297 -335 -297q-85 0 -150 35.5t-102 105t-37 168.5q0 158 90.5 300.5t244 229 t330.5 86.5q352 0 352 -376q0 -272 -171 -511t-416.5 -395t-452.5 -190z" />
<glyph unicode=":" horiz-adv-x="637" d="M29 0zM29 92q0 55 26 99.5t71 70.5t100 26q66 0 102 -33t36 -92q0 -49 -27 -93t-73 -71.5t-99 -27.5q-64 0 -100 32.5t-36 88.5zM234 892q0 55 26 99.5t71 70.5t100 26q66 0 102 -33t36 -92q0 -49 -27 -93t-73 -71.5t-99 -27.5q-64 0 -100 32.5t-36 88.5z" />
<glyph unicode=";" horiz-adv-x="650" d="M18 0zM18 81q0 55 29 102.5t78 76t106 28.5q66 0 101 -38.5t35 -111.5q0 -129 -81.5 -241t-223.5 -176l-10 33q93 47 154.5 119.5t67.5 156.5q-61 -59 -129 -59q-61 0 -94 28.5t-33 81.5zM244 892q0 55 26 99.5t71 70.5t100 26q66 0 102 -33t36 -92q0 -49 -27 -93 t-73 -71.5t-99 -27.5q-64 0 -100 32.5t-36 88.5z" />
<glyph unicode="&#x3c;" horiz-adv-x="1216" d="M97 727l1131 465l20 -59l-997 -414l678 -357l-33 -65z" />
<glyph unicode="=" horiz-adv-x="1331" d="M129 553l18 61h1026l-18 -61h-1026zM211 840l18 61h1026l-18 -61h-1026z" />
<glyph unicode="&#x3e;" horiz-adv-x="1219" d="M97 377l942 393l-758 406l33 59l879 -473l-1076 -445z" />
<glyph unicode="?" horiz-adv-x="995" d="M162 613q0 72 37 133.5t94.5 113.5t162.5 134l39 30q116 92 171.5 142.5t86.5 102.5t31 114q0 79 -43.5 126.5t-126.5 47.5q-47 0 -98.5 -15.5t-77.5 -46.5q35 1 68 -16t53.5 -47t20.5 -67q0 -40 -21 -74t-57 -54t-80 -20q-60 0 -102 37t-42 101q0 84 64 139.5 t161.5 81.5t198.5 26q107 0 196 -29t142 -86t53 -139q0 -61 -37 -122.5t-115.5 -134.5t-213.5 -173q-144 -106 -207 -158.5t-92 -99t-29 -104.5t35 -94.5t104 -36.5q44 0 87.5 14t69.5 39q-39 11 -68 44.5t-29 81.5q0 57 39 96t102 39q49 0 84 -32t35 -84q0 -79 -60.5 -133 t-149.5 -80t-175 -26q-138 0 -224.5 58.5t-86.5 170.5zM227 92q0 55 26 99.5t71 70.5t100 26q66 0 102 -33t36 -92q0 -49 -27 -93t-73 -71.5t-99 -27.5q-64 0 -100 32.5t-36 88.5z" />
<glyph unicode="@" horiz-adv-x="1767" d="M56 320q0 249 124 480t352 375t523 144q196 0 342.5 -61t228 -186t81.5 -311q0 -215 -100 -376t-246 -246.5t-277 -85.5q-161 0 -161 141q0 33 6 66q-56 -109 -127.5 -158t-161.5 -49q-108 0 -170.5 63.5t-62.5 187.5q0 143 77.5 302.5t203.5 266t263 106.5 q73 0 107.5 -35t37.5 -105l33 111q162 0 259 29l-217 -739q-14 -48 -14 -73q0 -48 47 -48q67 0 178.5 76.5t197 221.5t85.5 343q0 177 -78 294t-214.5 172.5t-316.5 55.5q-277 0 -496 -137t-340.5 -358t-121.5 -463q0 -205 90.5 -338t241 -194.5t338.5 -61.5q275 0 491 125 l13 -27q-94 -61 -223 -97t-281 -36q-198 0 -358.5 64t-257 204t-96.5 357zM669 305q0 -79 20 -116t63 -37q66 0 123 81t116 249l80 272q2 22 2 35q0 118 -78 118q-69 0 -146 -91t-128.5 -231.5t-51.5 -279.5z" />
<glyph unicode="A" d="M-189 0l9 41q53 14 103.5 61t128.5 156l854 1202q34 -2 53 -2q21 0 51 2l82 -1288q6 -67 35.5 -98t65.5 -33l-8 -41q-105 6 -297 6q-209 0 -308 -6l9 41q66 3 103.5 15.5t55.5 43.5t18 90l-1 23l-18 336h-443l-181 -255q-65 -92 -65 -151q0 -92 171 -102l-9 -41 q-172 6 -268 6q-77 0 -141 -6zM333 590h412l-30 541z" />
<glyph unicode="B" horiz-adv-x="1390" d="M-86 0l8 41q74 3 110.5 16t58.5 48t42 112l270 1016q18 65 18 99q0 40 -30 58t-108 19l10 41q108 -6 311 -6q71 0 173 2q86 2 126 2q231 0 341 -71t110 -200q0 -106 -69 -194.5t-194 -146.5t-288 -75q150 -7 253.5 -49.5t155.5 -112t52 -156.5q0 -141 -86.5 -241 t-239 -151t-348.5 -51q-29 0 -119 2q-128 4 -240 4q-205 0 -317 -6zM442 123q0 -37 22 -56.5t76 -19.5q121 0 207.5 58t130.5 156.5t44 218.5q0 117 -56.5 186t-179.5 69h-90l-137 -518q-17 -66 -17 -94zM605 770h72q109 0 190 61.5t123 162.5t42 216q0 97 -35.5 148 t-121.5 51q-43 0 -67.5 -12t-40.5 -42.5t-32 -90.5z" />
<glyph unicode="C" horiz-adv-x="1419" d="M86 478q0 242 128.5 474.5t353.5 379.5t498 147q79 0 135.5 -18t94 -46t74.5 -69q15 -18 30 -18q37 0 83 122h43q-68 -177 -131 -471h-45q16 98 16 163q0 94 -33 154q-73 134 -242 134q-165 0 -313 -144.5t-237.5 -375t-89.5 -472.5q0 -203 73.5 -304t204.5 -101 q78 0 161 36t144 99q53 55 93 126.5t92 197.5h45q-97 -355 -121 -492h-45q6 44 6 70q0 52 -25 52q-16 0 -42 -18q-95 -64 -189 -98.5t-212 -34.5q-274 0 -412 130.5t-138 376.5z" />
<glyph unicode="D" horiz-adv-x="1579" d="M-77 0l6 41q70 3 105.5 16t57.5 48.5t42 111.5l268 1016q15 58 15 88q0 43 -29.5 63.5t-104.5 24.5l6 41q142 -7 271 -7l65 1q216 6 306 6q299 0 458.5 -124t159.5 -365q0 -235 -115 -456.5t-343.5 -363t-551.5 -141.5q-20 0 -102 2q-114 4 -207 4q-202 0 -307 -6z M437 100q0 -35 22.5 -49t79.5 -14q209 0 363 145t234.5 373t80.5 470q0 194 -79.5 291t-251.5 97q-53 0 -79.5 -13t-42 -47.5t-37.5 -115.5l-268 -1024q-22 -83 -22 -113z" />
<glyph unicode="E" horiz-adv-x="1282" d="M-88 0l9 41q74 3 111 16t58.5 48t41.5 112l271 1016q18 70 18 99q0 30 -14 46t-42.5 22.5t-81.5 8.5l11 41q221 -6 664 -6q291 0 417 6q-50 -134 -78 -242q-17 -66 -27 -127h-46q3 41 3 75q0 93 -22.5 146.5t-71.5 77t-133 23.5h-64q-72 0 -107.5 -12t-57 -46.5 t-42.5 -111.5l-129 -483h76q102 0 171 71.5t110 173.5h46q-33 -99 -63 -217l-13 -49q-25 -93 -58 -266h-46q2 30 2 45q0 201 -171 201h-65l-131 -492q-18 -64 -18 -99q0 -30 13.5 -45t42 -20.5t80.5 -5.5h76q111 0 186.5 34t134.5 111.5t121 217.5h46q-22 -58 -44 -148 q-34 -124 -54 -262q-139 6 -465 6q-443 0 -665 -6z" />
<glyph unicode="F" horiz-adv-x="1205" d="M-88 0l9 41q74 3 111 16t58.5 48t41.5 112l271 1016q18 70 18 99q0 30 -14 46t-42.5 22.5t-81.5 8.5l11 41q221 -6 664 -6q291 0 417 6q-49 -133 -80 -250q-30 -104 -44 -180h-46q8 74 8 123q0 96 -25.5 153t-78 82t-138.5 25h-47q-68 0 -101.5 -12t-54 -46.5 t-39.5 -111.5l-131 -492h94q100 0 166.5 68t113.5 178h46q-35 -108 -68 -238l-7 -28q-30 -124 -64 -303h-46q1 16 1 46q0 115 -36 175.5t-127 60.5h-84l-129 -483q-16 -61 -16 -90q0 -34 17.5 -52t54 -25t105.5 -9l-9 -41q-126 6 -365 6q-225 0 -333 -6z" />
<glyph unicode="G" horiz-adv-x="1513" d="M77 440q0 237 127 479.5t352 401t504 158.5q84 0 145 -17t104 -45t87 -71q19 -19 35 -19q39 0 81 123h46q-67 -175 -132 -471h-45q11 83 11 154q0 92 -29 149q-41 77 -122.5 118.5t-192.5 41.5q-196 0 -343 -178t-225 -430.5t-78 -460.5q0 -184 72.5 -272.5t220.5 -88.5 q44 0 86.5 12t71.5 31q34 22 50.5 54.5t33.5 95.5l47 180q18 68 18 106q0 36 -17 54.5t-52.5 26t-102.5 10.5l11 41q118 -7 348 -7q199 0 289 7l-11 -41q-49 -4 -73 -16.5t-40.5 -46.5t-37.5 -113l-109 -406h-41q1 9 1 25q0 43 -14.5 67.5t-43.5 24.5q-30 0 -62.5 -13 t-82.5 -39l-28 -14q-150 -80 -296 -80q-177 0 -303.5 55t-193 160t-66.5 254z" />
<glyph unicode="H" horiz-adv-x="1658" d="M-85 0l10 41q71 3 107 16t58 48.5t42 111.5l271 1016q17 65 17 98q0 31 -14 47t-42.5 22.5t-81.5 8.5l10 41q105 -6 334 -6q197 0 323 6l-10 -41q-75 -3 -111.5 -16t-58 -48t-41.5 -112l-128 -483h534l129 483q18 63 18 98q0 31 -14 47t-43 22.5t-82 8.5l10 41 q111 -6 320 -6q225 0 338 6l-11 -41q-75 -3 -111.5 -16t-58 -48t-41.5 -112l-270 -1016q-17 -66 -17 -99q0 -30 13.5 -46t42.5 -22.5t82 -8.5l-8 -41q-108 6 -336 6q-208 0 -322 -6l9 41q74 3 110.5 16t58 48t41.5 112l131 492h-534l-131 -492q-17 -66 -17 -99 q0 -30 13.5 -46t42.5 -22.5t82 -8.5l-8 -41q-114 6 -322 6q-223 0 -334 -6z" />
<glyph unicode="I" horiz-adv-x="798" d="M-85 0l10 41q71 3 107 16t58 48.5t42 111.5l271 1016q17 65 17 98q0 31 -14 47t-42.5 22.5t-81.5 8.5l10 41q102 -6 322 -6q205 0 335 6l-10 -41q-75 -3 -111.5 -16t-58 -48t-41.5 -112l-270 -1016q-17 -66 -17 -99q0 -30 13.5 -46t42.5 -22.5t82 -8.5l-8 -41 q-118 6 -334 6q-214 0 -322 -6z" />
<glyph unicode="J" horiz-adv-x="1400" d="M54 -229q0 43 21 78t60 55.5t92 20.5q69 0 113.5 -33t45.5 -90q0 -98 -113 -146q28 -7 57 -7q75 0 123.5 54.5t80.5 143.5t79 264l9 32l109 394q25 92 60 172h-277l6 41h289q61 129 148 230.5t190.5 183t252.5 178.5q-77 -26 -199 -86q-66 -33 -110.5 -51.5t-97.5 -31 t-113 -12.5q-61 0 -114.5 14t-126.5 41q-63 24 -107.5 36t-90.5 12q-57 0 -90.5 -29.5t-33.5 -85.5q0 -139 230 -160l-4 -39q-162 13 -259 86.5t-98 204.5v9q0 76 31 134q33 61 98.5 95t160.5 34q62 0 114.5 -14t95 -34.5t99.5 -54.5q61 -35 102 -55t94.5 -34t115.5 -14 q179 0 347 79q77 120 127 120q14 0 28 -11q13 -11 13 -25q0 -50 -150 -106q-122 -97 -206 -250t-147 -364h204l-7 -41h-209q-8 -26 -22 -80l-127 -496q-60 -233 -207.5 -375.5t-399.5 -142.5q-130 0 -208.5 38t-78.5 118z" />
<glyph unicode="K" horiz-adv-x="1515" d="M-85 0l10 41q71 3 107 16t58 48.5t42 111.5l271 1016q17 65 17 98q0 31 -14 47t-42.5 22.5t-81.5 8.5l10 41q105 -6 334 -6q197 0 323 6l-10 -41q-75 -3 -111.5 -16t-58 -48t-41.5 -112l-270 -1016q-17 -66 -17 -99q0 -30 13.5 -46t42.5 -22.5t82 -8.5l-8 -41 q-114 6 -322 6q-223 0 -334 -6zM647 746q0 7 1 10q3 21 16.5 31t42.5 10q43 0 119 -21q92 13 150 69t89.5 128.5t65.5 187.5q31 103 55 161t62 97q61 60 147 60q88 0 140.5 -50.5t52.5 -131.5q0 -48 -21.5 -95t-63.5 -78t-101 -31t-98 36.5t-39 98.5q0 61 42 118.5t111 87.5 q-14 7 -34 7q-35 -1 -59 -12t-46 -34q-33 -37 -56 -92.5t-54 -152.5q-35 -113 -65.5 -184t-83.5 -128.5t-134 -75.5q107 -12 170.5 -43t92.5 -86.5t29 -144.5q0 -40 -4 -77l-23 -215q-1 -5 -1 -15q0 -60 53 -60q38 0 64.5 30t48.5 93l35 104h41l-53 -158 q-38 -110 -109.5 -164.5t-165.5 -54.5q-114 0 -175.5 56.5t-61.5 154.5q0 14 4 48l40 287q5 40 5 83q0 52 -12 83t-40 52q-84 -22 -125 -22q-52 0 -52 33z" />
<glyph unicode="L" horiz-adv-x="1238" d="M-88 0l9 41q74 3 111 16t58.5 48t41.5 112l271 1016q18 70 18 99q0 30 -14 46t-42.5 22.5t-81.5 8.5l11 41q106 -6 337 -6q194 0 319 6l-10 -41q-75 -3 -111.5 -16t-58 -48t-42.5 -112l-271 -1016q-18 -64 -18 -100q0 -29 13.5 -44t42 -20.5t80.5 -5.5h82q146 0 256.5 89 t191.5 294h46q-22 -59 -50 -168q-34 -124 -54 -262q-139 6 -465 6q-448 0 -670 -6z" />
<glyph unicode="M" horiz-adv-x="1877" d="M-86 0l9 41q68 3 111 30.5t68 73.5t44 118l259 970q17 65 17 98q0 31 -14 47t-42.5 22.5t-81.5 8.5l10 41q95 -6 281 -6q108 0 185 6l116 -1046l663 1040h160q198 0 330 6l-10 -41q-75 -3 -112 -16t-58 -48t-41 -112l-271 -1016q-17 -65 -17 -98q0 -31 14 -47t42.5 -22.5 t81.5 -8.5l-8 -41q-129 6 -328 6q-223 0 -327 -6l8 41q75 3 111.5 16t58 48t41.5 112l297 1104l-850 -1331h-45l-165 1256l-259 -983q-16 -59 -16 -99q0 -58 38.5 -89t131.5 -34l-9 -41q-72 6 -229 6q-125 0 -194 -6z" />
<glyph unicode="N" horiz-adv-x="1689" d="M-163 23q0 52 24 95t66.5 67.5t95.5 24.5q66 0 103 -34t37 -89q0 -68 -43.5 -119.5t-110.5 -71.5q10 -9 33 -9q104 0 174 111q79 123 162 443.5t182 836.5q4 24 4 46q0 34 -14.5 51.5t-47.5 24.5t-96 9l11 41q64 -6 182 -6q95 0 166 6l423 -975q171 740 308 938 q90 131 221 131q61 0 104.5 -23t66 -62t22.5 -88q0 -52 -24 -95t-66.5 -68t-95.5 -25q-67 0 -103.5 34t-36.5 89q0 67 43.5 119t110.5 71q-12 10 -34 10q-98 -1 -171 -109q-91 -136 -189 -477t-223 -930h-45l-508 1112q-87 -432 -166.5 -730t-152.5 -395 q-47 -60 -96.5 -94.5t-123.5 -34.5q-61 0 -104 23t-65.5 63t-22.5 89z" />
<glyph unicode="O" horiz-adv-x="1591" d="M85 463q0 232 118.5 469t330.5 392t479 155q173 0 298.5 -58t192 -169t66.5 -267q0 -231 -119.5 -467.5t-332.5 -391.5t-478 -155q-173 0 -298 58t-191 168.5t-66 265.5zM437 436q0 -131 28 -228t78 -148.5t115 -51.5q140 0 269 147.5t209 381.5t80 477q0 131 -28.5 228 t-78.5 148.5t-115 51.5q-139 0 -268.5 -147.5t-209 -381.5t-79.5 -477z" />
<glyph unicode="P" horiz-adv-x="1317" d="M-86 0l8 41q74 3 110.5 16t58.5 48t42 112l270 1016q16 69 16 96q0 41 -29.5 59t-106.5 21l10 41q105 -6 325 -6q49 0 147 2q100 2 153 2q481 0 481 -309q0 -160 -106.5 -286.5t-299 -198.5t-439.5 -72l-97 -365q-16 -58 -16 -90q0 -43 30.5 -62.5t106.5 -23.5l-9 -41 q-123 6 -315 6q-232 0 -340 -6zM565 623h8q171 0 279.5 82t156.5 209.5t48 270.5q0 112 -47.5 168t-151.5 56q-42 0 -63 -14.5t-34 -47.5t-34 -114z" />
<glyph unicode="Q" horiz-adv-x="1703" d="M-79 -3q0 65 37.5 118t103 82.5t146.5 29.5q76 0 150 -26t140.5 -65.5t158.5 -102.5q187 97 338 250t239 345t88 398q0 196 -79.5 306t-228.5 110q-139 0 -248 -92.5t-168.5 -239t-59.5 -299.5q0 -125 50 -189.5t160 -64.5q82 0 152.5 36.5t117.5 96t63 127.5 q10 38 10 78q0 10 -1 20q-21 -61 -73 -92t-109 -31q-66 0 -106 43t-40 110q0 53 26 96t70.5 67.5t97.5 24.5q85 0 134.5 -61.5t49.5 -164.5q0 -117 -64.5 -210.5t-179.5 -146t-260 -52.5q-131 0 -231 43.5t-155.5 125.5t-55.5 195q0 172 121.5 313.5t320.5 222.5t421 81 q180 0 319 -51.5t216.5 -145.5t77.5 -219q0 -175 -142 -373t-366.5 -377t-469.5 -305q102 -70 177 -114.5t162 -74t180 -29.5q188 0 263 145q-55 -45 -130 -45q-70 0 -114.5 40t-44.5 109q0 48 23.5 87.5t65.5 62t95 22.5q75 0 122 -44.5t47 -126.5q0 -103 -76.5 -202 t-208 -161t-286.5 -62q-120 0 -219.5 38.5t-175 94t-164.5 138.5q-159 -54 -274 -54q-99 0 -156 42t-57 123zM-35 -16q0 -56 49 -86.5t137 -30.5q86 0 227 47q-61 57 -104.5 91.5t-91 56.5t-96.5 22q-54 0 -87.5 -27t-33.5 -73z" />
<glyph unicode="R" horiz-adv-x="1456" d="M-86 0l8 41q74 3 110.5 16t58.5 48t42 112l269 1016q18 65 18 96q0 40 -30 58t-107 22l10 41q105 -6 310 -6q71 0 177 2q90 2 130 2q249 0 369 -70t120 -215q0 -120 -75 -215.5t-212.5 -157.5t-321.5 -82h2q123 -11 204.5 -33t129.5 -70.5t48 -133.5q0 -21 -3 -45 l-27 -211q-3 -25 -3 -47q0 -96 65 -96q39 0 69 36t56 111l10 29h48l-9 -27q-38 -128 -112.5 -189t-199.5 -61q-124 0 -187.5 53.5t-63.5 144.5q0 20 3 41l30 232q5 40 5 67q0 64 -24 103.5t-82.5 60.5t-163.5 23l-127 -479q-20 -76 -20 -100q0 -38 30.5 -55.5t109.5 -20.5 l-9 -41q-123 6 -320 6q-227 0 -335 -6zM595 733h15q135 0 239 54t162 158t58 249q0 110 -47 162.5t-143 52.5q-42 0 -67.5 -11.5t-42.5 -40t-31 -82.5z" />
<glyph unicode="S" horiz-adv-x="1202" d="M-58 -14q68 162 140 491h40q-18 -69 -18 -146q0 -154 85.5 -234.5t248.5 -80.5q264 0 264 215q0 81 -29.5 151.5t-72.5 127t-115 137.5q-73 83 -116 140t-73 128.5t-30 153.5q0 131 75 224t191 139.5t237 46.5q108 0 182.5 -25t141.5 -66q54 -32 68 -32q16 0 31.5 25.5 t35.5 82.5h41q-78 -199 -120 -417h-41q12 57 12 114q0 80 -33.5 141t-99.5 94.5t-160 33.5q-110 0 -179 -55.5t-69 -167.5q0 -66 30.5 -129.5t75.5 -118.5t122 -136q84 -90 133.5 -151t84.5 -135.5t35 -156.5q0 -137 -87.5 -229t-217.5 -136t-259 -44q-92 0 -155 12 t-104.5 31t-95.5 52q-47 30 -71 30q-26 0 -42.5 -22.5t-44.5 -87.5h-41z" />
<glyph unicode="T" horiz-adv-x="1394" d="M176 1197q0 58 30.5 112t102.5 89q99 48 274 48q137 0 381 -24q218 -21 326 -21q139 0 217 27q-70 68 -70 162q0 74 44.5 121t117.5 47q48 0 83.5 -20t54.5 -53.5t19 -71.5q0 -127 -142 -193q-125 -60 -342 -60q-50 0 -120 5l-298 -1127q-16 -57 -16 -96q0 -36 16.5 -57 t53 -31t99.5 -13l-8 -41q-129 6 -379 6q-243 0 -360 -6l8 41q87 3 135.5 21t76 58t48.5 118l308 1156q-163 15 -246 15q-166 0 -231 -35q54 -15 89 -60t35 -106q0 -47 -20.5 -86t-57 -62t-82.5 -23q-69 0 -108 46t-39 114z" />
<glyph unicode="U" horiz-adv-x="1421" d="M154 325q0 104 43 265l170 643q17 65 17 98q0 31 -14 47t-42.5 22.5t-81.5 8.5l12 41q105 -6 338 -6q192 0 318 6l-13 -41q-75 -3 -111.5 -16t-58 -48t-41.5 -112l-180 -678q-49 -182 -49 -297q0 -108 45 -161.5t139 -53.5q215 0 339 139t190 391l142 541q31 118 31 174 q0 60 -34.5 86t-120.5 35l12 41q75 -6 219 -6q113 0 180 6l-11 -41q-69 -9 -108 -34.5t-64.5 -78.5t-52.5 -157l-140 -543q-73 -283 -201 -434q-75 -88 -185 -139.5t-235 -51.5q-148 0 -248.5 42t-150.5 119q-53 77 -53 193z" />
<glyph unicode="V" horiz-adv-x="1353" d="M188 1409l10 41q102 -6 295 -6q205 0 313 6l-11 -41q-62 -3 -97 -13t-52.5 -36t-17.5 -76q0 -21 3 -47l103 -909l540 828q61 94 61 152q0 49 -43.5 72.5t-126.5 28.5l10 41q81 -6 268 -6q90 0 154 6l-10 -41q-67 -18 -121.5 -63.5t-123.5 -153.5l-781 -1202q-17 1 -52 1 t-52 -1l-162 1288q-9 67 -40 98t-67 33z" />
<glyph unicode="W" horiz-adv-x="2011" d="M175 1409l10 41q102 -6 287 -6q175 0 266 6l-10 -41q-40 -3 -63 -13t-34.5 -35.5t-11.5 -73.5q0 -32 2 -50l99 -889l375 617l-43 313q-9 69 -33.5 99t-54.5 32l9 41q96 -6 267 -6q213 0 319 6l-10 -41q-62 -3 -96.5 -13t-51 -34.5t-16.5 -71.5q0 -26 4 -53l110 -856 l421 775q51 96 51 152q0 51 -42.5 73.5t-128.5 27.5l10 41q81 -6 268 -6q91 0 155 6l-11 -41q-47 -13 -84 -33.5t-76 -64t-80 -119.5l-646 -1202h-106l-126 914l-553 -914h-105l-162 1288q-9 69 -40 99t-69 32z" />
<glyph unicode="X" horiz-adv-x="1518" d="M-82 155q0 56 23 102.5t64.5 73t94.5 26.5q63 0 97.5 -37t34.5 -98q0 -68 -42.5 -124t-111.5 -79q12 -10 35 -10q64 1 135 48q88 61 199 201t212 336l-74 606q-16 143 -114 143q-48 0 -81.5 -33t-58.5 -104l-35 -104h-41l53 158q42 115 116.5 167t184.5 52 q147 0 215.5 -82t88.5 -238l30 -255q74 158 165 294.5t172 207.5q93 73 187 73q85 0 133 -52t48 -132q0 -56 -23 -102.5t-64.5 -73t-94.5 -26.5q-62 0 -97 36.5t-35 96.5q0 69 42.5 125t111.5 80q-12 10 -34 10q-67 0 -134 -48q-78 -62 -176.5 -206t-192.5 -349l70 -582 q17 -140 116 -140q49 0 82 30t56 98l35 104h41l-53 -158q-42 -115 -112 -167t-173 -52q-109 0 -175 40t-97.5 110t-44.5 170l-29 237q-78 -150 -181 -282.5t-196 -204.5q-94 -70 -191 -70q-85 0 -133 52t-48 132z" />
<glyph unicode="Y" horiz-adv-x="1502" d="M168 1102l53 158q38 116 110.5 167.5t177.5 51.5q134 0 210.5 -83t114 -235t66.5 -413q68 191 154 345t181 259q118 127 243 127q59 0 102 -24t65.5 -64.5t22.5 -89.5q0 -51 -24 -93t-66.5 -66.5t-95.5 -24.5q-67 0 -104 34t-37 91q0 66 43.5 117.5t110.5 71.5 q-12 10 -33 10q-60 -1 -124 -48q-58 -42 -131 -138.5t-150.5 -246.5t-142.5 -341l-113 -450q-13 -55 -13 -83q0 -37 16.5 -56t49.5 -26.5t92 -10.5l-10 -41q-114 6 -352 6q-222 0 -330 -6l10 41q75 3 112 16t59 48.5t40 111.5l112 441q-31 279 -89 474.5t-146 195.5 q-35 0 -57.5 -25.5t-37.5 -70.5l-44 -130h-45z" />
<glyph unicode="Z" horiz-adv-x="1348" d="M-65 17q0 28 38 62.5t115 63.5l576 566h-332l14 41h359l571 561q-215 -185 -416 -185q-72 0 -128 13.5t-128 38.5q-53 19 -91 29t-78 10q-43 0 -67 -21t-24 -62q0 -87 149 -117l-10 -40q-113 18 -189.5 75.5t-76.5 161.5q0 76 36.5 136.5t103.5 94.5t157 34q79 0 140 -23 t141 -69q54 -31 91 -48.5t83.5 -30t99.5 -12.5q55 0 102 13.5t115 42.5q37 53 78 86t72 33q16 0 30 -11q12 -10 12 -27q0 -28 -38 -62.5t-115 -63.5l-567 -557h311l-16 -41h-336l-580 -570q215 185 417 185q72 0 128 -13.5t128 -38.5q53 -19 91 -29t78 -10q91 0 91 83 q0 87 -148 117l8 40q113 -18 189.5 -75.5t76.5 -161.5q0 -76 -36.5 -136.5t-103.5 -94.5t-157 -34q-79 0 -140 23t-141 69q-54 31 -91 48.5t-83.5 30t-99.5 12.5q-55 0 -102 -13.5t-115 -42.5q-36 -53 -78 -86t-73 -33q-16 0 -29 11q-12 10 -12 27z" />
<glyph unicode="[" horiz-adv-x="742" d="M-46 -371l485 1952h472l-9 -39h-166l-469 -1874h166l-8 -39h-471zM0 0z" />
<glyph unicode="\" horiz-adv-x="1005" d="M268 1479h64l467 -1508h-68z" />
<glyph unicode="]" horiz-adv-x="743" d="M-168 -371l9 39h166l469 1874h-166l8 39h471l-485 -1952h-472z" />
<glyph unicode="^" horiz-adv-x="1081" d="M137 664q155 66 291.5 179t220.5 238h37q19 -127 96 -238.5t200 -177.5l-17 -30q-114 26 -224.5 71.5t-197.5 100.5q-74 -49 -181 -95t-216 -77z" />
<glyph unicode="_" horiz-adv-x="1429" d="M-113 -358l60 180h1125l-61 -180h-1124zM0 -178z" />
<glyph unicode="`" horiz-adv-x="457" d="M94 1641q0 60 48 88q24 14 55 14q32 0 62 -17.5t49 -48.5q20 -32 32 -69t26 -98q22 -86 37.5 -140t44.5 -130l-25 -13q-85 105 -194 212q-48 48 -71.5 74t-41.5 56q-22 35 -22 72z" />
<glyph unicode="a" horiz-adv-x="1144" d="M-1 224q0 182 97.5 385.5t246.5 340.5t292 137q55 0 89 -33t40 -99l29 103q168 3 297 29l-268 -912q-10 -37 -10 -59q0 -44 37 -44q71 0 128 161l36 100h39l-51 -150q-41 -116 -113 -164t-157 -48q-107 0 -152 65q-27 40 -27 103q0 49 18 123q-68 -154 -153.5 -222.5 t-188.5 -68.5q-114 0 -171.5 66.5t-57.5 186.5zM302 209q0 -69 13.5 -98.5t43.5 -29.5q44 0 98.5 62.5t108.5 181t96 279.5l-10 -51l89 320q2 22 2 33q0 50 -18 78t-51 28q-70 0 -158.5 -125.5t-151 -314t-62.5 -363.5z" />
<glyph unicode="b" horiz-adv-x="1119" d="M-48 -18q26 53 42 120l370 1264q9 31 9 56q0 41 -31.5 60t-106.5 19l12 43q141 1 254 22t220 62l-240 -834q74 153 152.5 223t173.5 70q124 0 188.5 -80.5t64.5 -234.5q0 -167 -78.5 -355.5t-223.5 -317t-335 -128.5q-57 0 -103.5 23.5t-69.5 63.5q-105 -9 -268 -91z M275 76q35 -45 92 -45q96 0 187.5 131.5t149 322.5t57.5 353q0 75 -17 108t-51 33q-57 0 -129 -101.5t-135 -264.5z" />
<glyph unicode="c" horiz-adv-x="949" d="M16 286q0 176 88 363.5t248 312.5t363 125q73 0 129.5 -25.5t87.5 -70.5t31 -101q0 -55 -27 -107.5t-73.5 -85.5t-101.5 -33q-51 0 -84 32t-33 86t25.5 100.5t68.5 78.5t92 45q-33 41 -97 41q-101 0 -196.5 -110t-155 -286.5t-59.5 -364.5q0 -104 41 -154t115 -50 q148 0 270 180l41 -16q-73 -118 -186.5 -196.5t-259.5 -78.5q-149 0 -238 80t-89 235z" />
<glyph unicode="d" horiz-adv-x="1185" d="M9 259q0 165 85.5 360.5t241 331.5t354.5 136q97 0 125 -69l92 348q10 37 10 57q0 41 -32 59.5t-108 18.5l14 43q142 1 256 22t222 62l-401 -1454q-11 -30 -11 -55q0 -47 40 -47q67 0 125 161l36 99h38l-49 -150q-38 -116 -111 -163.5t-160 -47.5q-127 0 -162 94 q-16 33 -16 83q0 64 25 149l3 10q-79 -175 -166 -255.5t-208 -80.5q-109 0 -176 72t-67 216zM311 215q0 -72 15.5 -106.5t50.5 -34.5q40 0 96 59.5t115.5 175t109.5 272.5l103 387q-11 37 -30 54.5t-52 17.5q-88 0 -184 -125.5t-160 -318.5t-64 -381z" />
<glyph unicode="e" horiz-adv-x="961" d="M6 260q0 182 98.5 376t268.5 322.5t373 128.5q95 0 154 -41.5t59 -120.5q0 -117 -95.5 -214.5t-239 -166.5t-299.5 -111q-12 -72 -12 -141q0 -108 40.5 -153t117.5 -45q63 0 144 40.5t155 127.5l32 -16q-46 -73 -116.5 -135.5t-162.5 -101t-196 -38.5q-92 0 -165 33 t-114.5 98.5t-41.5 157.5zM332 471q145 64 226 137q82 75 129 170t47 203q0 68 -33 68q-61 0 -136 -83.5t-139.5 -218t-93.5 -276.5z" />
<glyph unicode="f" horiz-adv-x="699" d="M-92 -385l375 1397h-170l12 41h169q45 169 103 279.5t136 174.5q116 95 288 95q84 0 145 -24.5t93.5 -69t32.5 -102.5q0 -44 -24.5 -85.5t-67.5 -68t-96 -26.5q-61 0 -96 28.5t-35 81.5q0 68 42 122.5t114 79.5q-9 11 -28 19t-42 8q-61 0 -107 -41q-36 -33 -63.5 -105.5 t-62.5 -201.5l-44 -164h221l-12 -41h-220l-367 -1368q-166 -3 -296 -29z" />
<glyph unicode="g" horiz-adv-x="966" d="M-210 -234q0 49 35 83t89 58t155 60q55 19 128 47l-36 11q-55 16 -89 49.5t-34 81.5q0 51 40.5 96t118.5 88.5t209 100.5q-145 2 -230.5 59.5t-85.5 171.5q0 93 61 189.5t180.5 160.5t283.5 64q54 0 96 -7q85 169 164 230q60 47 131 47q58 0 92 -29t34 -85 q0 -43 -22 -83.5t-59 -66t-81 -25.5t-70 26.5t-26 67.5q0 32 17.5 66.5t51.5 63.5q-5 4 -14 4q-21 0 -41 -18q-30 -24 -69.5 -81.5t-69.5 -123.5q92 -21 143.5 -75.5t51.5 -142.5q0 -93 -56 -182t-159.5 -151t-237.5 -76q-99 -42 -151.5 -74.5t-52.5 -62.5q0 -17 22 -30 t70 -28l172 -57q108 -36 170.5 -86t62.5 -129q0 -104 -90 -188.5t-234.5 -132.5t-301.5 -48q-117 0 -200 19.5t-125.5 55t-42.5 82.5zM77 -261q0 -48 32 -71.5t87 -23.5q81 0 165.5 28.5t140.5 79t56 112.5q0 23 -14.5 37t-34.5 21t-71 22l-206 60q-87 -73 -121 -141.5 t-34 -123.5zM366 604q0 -69 19.5 -97.5t60.5 -28.5q72 0 121 66.5t72 168t24 207.5q0 63 -17 96t-63 33q-69 0 -118 -72.5t-74 -177t-25 -195.5z" />
<glyph unicode="h" horiz-adv-x="1167" d="M-37 0l406 1366q9 31 9 56q0 41 -32 60t-107 19l13 43q142 1 256 22t221 62l-278 -949q71 156 139.5 245t139 126t156.5 37q186 0 186 -165q0 -63 -27 -144l-201 -604q-12 -37 -12 -59q0 -43 40 -43q70 0 128 161l36 99h39l-51 -150q-72 -211 -275 -211q-186 0 -186 168 q0 68 30 158l184 553q19 55 19 88q0 47 -40 47q-57 0 -133.5 -102t-156.5 -275.5t-148 -381.5l-66 -226h-289z" />
<glyph unicode="i" horiz-adv-x="660" d="M51 721l56 156q74 210 284 210q95 0 138 -46t43 -120q0 -54 -22 -120l-215 -627q-13 -36 -13 -60q0 -42 41 -42q32 0 63 35t66 126l37 99h39l-52 -150q-41 -115 -114.5 -163t-162.5 -48q-93 0 -139.5 43.5t-46.5 125.5q0 64 31 157l200 588q13 36 13 61q0 41 -35 41 q-38 0 -69 -37.5t-63 -123.5l-40 -105h-39zM361 1391q0 60 27.5 103.5t75.5 66.5t107 23q72 0 111.5 -34t39.5 -94q0 -54 -28.5 -97.5t-77 -67.5t-106.5 -24q-71 0 -110 33t-39 91z" />
<glyph unicode="j" horiz-adv-x="617" d="M-409 -265q0 40 21 74.5t57 55t79 20.5q54 0 87 -31.5t33 -76.5q0 -35 -21 -71t-57 -60q78 9 124.5 58.5t78.5 162.5l286 1018q11 42 11 63q0 39 -36 39t-67 -37.5t-62 -123.5l-39 -105h-38l54 156q39 112 115 161t171 49q174 0 174 -160q0 -56 -20 -126l-156 -565 q-61 -219 -133 -344t-176 -187q-119 -90 -291 -90q-195 0 -195 120zM355 1389q0 61 27.5 105t75 67t107.5 23q71 0 110.5 -34t39.5 -92q0 -55 -28 -98.5t-76.5 -68t-107.5 -24.5q-70 0 -109 32.5t-39 89.5z" />
<glyph unicode="k" horiz-adv-x="1131" d="M-37 0l406 1366q9 31 9 56q0 41 -32 60t-107 19l13 43q142 1 256 22t221 62l-298 -1016q77 12 125 50t74 85t56 123q24 64 45 104t53 66q57 47 128 47q93 0 141 -52t48 -131q0 -50 -21.5 -91.5t-60.5 -65.5t-89 -24q-63 0 -97.5 34t-34.5 84q0 59 38.5 109t97.5 81 q-11 16 -32 16q-48 0 -87 -31q-27 -23 -46 -59t-45 -101q-28 -72 -52.5 -118t-66.5 -85t-104 -55q153 -3 248 -54t95 -168q0 -32 -7 -66l-31 -153q-5 -30 -5 -43q0 -42 36 -42q68 0 126 161l36 99h39l-51 -150q-74 -211 -294 -211q-84 0 -128 41t-44 120q0 34 9 76l36 157 q12 48 12 83q0 59 -36.5 90t-119.5 43l-170 -581h-289z" />
<glyph unicode="l" horiz-adv-x="615" d="M15 153q0 65 24 144l321 1069q10 37 10 57q0 41 -32 59.5t-107 18.5l15 43q140 1 253 22t222 62l-431 -1454q-8 -27 -8 -50q0 -52 42 -52q66 0 124 161l36 99h39l-51 -150q-40 -116 -113 -163.5t-160 -47.5q-93 0 -138.5 47.5t-45.5 134.5z" />
<glyph unicode="m" horiz-adv-x="1753" d="M31 0l248 885q10 35 10 59q0 43 -35 43q-36 0 -67 -38t-62 -123l-39 -105h-39l55 156q74 210 276 210q166 0 166 -163q0 -54 -19 -123l-46 -180q68 169 136 271t146.5 148.5t177.5 46.5q161 0 161 -158q0 -67 -25 -151l-39 -139q70 169 141 267t146.5 139.5t166.5 41.5 q167 0 167 -160q0 -65 -28 -149l-201 -604q-12 -33 -12 -60q0 -42 40 -42q70 0 128 161l36 99h39l-51 -150q-72 -211 -275 -211q-119 0 -165 74q-23 38 -23 93q0 66 32 159l184 553q16 51 16 82q0 41 -28 41q-55 0 -126 -87.5t-151.5 -265t-161.5 -436.5v6l-53 -190h-293 l250 850q18 59 18 84q0 39 -35 39q-60 0 -133 -95t-147.5 -265t-140.5 -390l-57 -223h-288z" />
<glyph unicode="n" horiz-adv-x="1236" d="M31 0l249 885q13 46 13 65q0 37 -37 37t-67 -35.5t-63 -125.5l-39 -105h-39l55 156q39 111 105 160.5t160 49.5q177 0 177 -167q0 -49 -18 -119l-66 -254q85 210 162.5 328t156 165t175.5 47q185 0 185 -164q0 -64 -27 -145l-201 -604q-12 -37 -12 -59q0 -43 40 -43 q70 0 128 161l37 99h38l-51 -150q-72 -211 -275 -211q-116 0 -162 68q-26 38 -26 96q0 67 32 162l184 553q18 56 18 88q0 47 -39 47q-63 0 -152.5 -129.5t-179 -340.5t-153.5 -442l-19 -73h-289z" />
<glyph unicode="o" horiz-adv-x="1084" d="M24 309q0 169 76.5 350.5t227 304.5t360.5 123q159 0 245 -86.5t86 -250.5q0 -169 -76.5 -350.5t-227 -305t-360.5 -123.5q-159 0 -245 86.5t-86 251.5zM298 152q0 -74 17 -107t53 -33q75 0 164 141.5t150.5 351t61.5 399.5q0 80 -16.5 111.5t-50.5 31.5 q-77 0 -166.5 -145t-151 -356.5t-61.5 -393.5z" />
<glyph unicode="p" horiz-adv-x="1195" d="M-186 -371l13 43q50 0 79.5 12t48 39t31.5 76l372 1335q-57 -129 -132.5 -231t-181.5 -212l-22 27q90 95 150 169.5t120.5 182.5t121.5 263l4 15q165 12 305 58l-177 -625q75 159 156 232.5t177 73.5q124 0 189 -80.5t65 -234.5q0 -168 -75 -356t-214.5 -316.5 t-322.5 -128.5q-57 0 -106 19t-79 52l-55 -196q-12 -43 -12 -73q0 -56 41.5 -77.5t128.5 -23.5l-12 -43l-61 2q-163 7 -263 7q-91 0 -238 -7q-40 -2 -51 -2zM347 78q35 -47 93 -47q97 0 188.5 124t148.5 307t57 346q0 96 -17.5 133.5t-50.5 37.5q-40 0 -89 -53t-98.5 -145.5 t-91.5 -208.5z" />
<glyph unicode="q" horiz-adv-x="1129" d="M16 287q0 164 83 353t229 318t325 129q58 0 105 -24t69 -65q108 10 268 91l32 -14q-24 -47 -45 -120l-304 -1133q-8 -28 -8 -55q0 -48 33 -70t100 -25l-12 -43l-59 2q-161 7 -258 7t-251 -7q-40 -2 -50 -2l12 43q65 1 105 16.5t63.5 45.5t37.5 81l133 497 q-81 -181 -165.5 -261t-188.5 -80q-124 0 -189 81t-65 235zM315 221q0 -69 17 -99t51 -30q50 0 111.5 72t117.5 191.5t90 255.5l-6 -32l107 400q-35 49 -94 49q-96 0 -187.5 -135.5t-149 -328t-57.5 -343.5z" />
<glyph unicode="r" horiz-adv-x="962" d="M31 0l248 885q11 41 11 62q0 40 -34 40q-37 0 -68.5 -37t-62.5 -124l-39 -105h-39l55 156q74 210 282 210q158 0 158 -165q0 -52 -16 -121l-16 -63q51 131 102 207t108.5 109t131.5 33q78 0 123 -46.5t45 -118.5q0 -57 -26 -106t-71 -78t-99 -29q-60 0 -92.5 31.5 t-32.5 90.5q0 48 23 90.5t62 72.5t85 41q-12 7 -26 7q-104 0 -210 -147t-218 -525l-96 -370h-288z" />
<glyph unicode="s" horiz-adv-x="860" d="M-40 210q0 60 31 103t85 43t85 -44.5t31 -115.5q0 -39 -9 -73.5t-18.5 -59.5t-12.5 -34q33 -15 80 -15q76 0 123.5 47.5t47.5 129.5q0 65 -28 135.5t-85 156.5q-48 72 -70.5 110.5t-39.5 88t-17 104.5q0 87 44.5 155.5t128 107t198.5 38.5q133 0 222 -48t89 -164 q0 -35 -14 -70.5t-42.5 -58.5t-68.5 -23q-50 0 -80.5 38.5t-30.5 99.5q0 50 18 94.5t44 75.5q-25 15 -71 15q-75 0 -117 -46t-42 -130q0 -53 22 -100t71 -122l29 -45q65 -108 93.5 -178.5t28.5 -140.5q0 -89 -47.5 -160t-135 -112t-204.5 -41q-146 0 -242 56.5t-96 182.5z " />
<glyph unicode="t" horiz-adv-x="724" d="M64 171q0 57 20 126l205 715h-186l10 41h188l89 311q176 3 298 29l-98 -340h230l-6 -41h-236l-243 -838q-6 -22 -6 -41q0 -61 61 -61q45 0 87 43.5t75 131.5l31 85h39l-41 -119q-82 -242 -308 -242q-104 0 -156.5 54t-52.5 146z" />
<glyph unicode="u" horiz-adv-x="1223" d="M49 727l51 150q72 210 275 210q185 0 185 -169q0 -67 -29 -157l-184 -552q-18 -55 -18 -87q0 -48 39 -48q61 0 147.5 125t174 332t151.5 440l23 88q180 3 297 28l-257 -913q-13 -45 -13 -67q0 -35 36 -35q37 0 68.5 37t62.5 124l39 105h39l-55 -156q-40 -113 -112.5 -162 t-162.5 -49q-111 0 -151 70q-19 35 -19 85t21 132l55 211q-80 -193 -154.5 -301.5t-150.5 -152.5t-169 -44q-91 0 -137.5 43t-46.5 124q0 62 27 143l199 604q12 36 12 58q0 44 -40 44q-70 0 -128 -161l-37 -99h-38z" />
<glyph unicode="v" horiz-adv-x="1074" d="M58 723l45 149q61 217 193 217q24 0 42 -7t46 -23q34 -19 59.5 -28.5t61.5 -9.5q80 0 149 44l20 39l43 -21q-99 -145 -174 -301.5t-116 -303.5t-41 -263q0 -78 22 -115t69 -37q121 0 222 94t167 235.5t90 281.5q-88 42 -144.5 113.5t-56.5 159.5q0 67 36 104t96 37 q70 0 104.5 -54t34.5 -152l-1 -30q-10 -208 -88.5 -411t-226 -336.5t-351.5 -133.5q-153 0 -221 70.5t-68 175.5q0 337 549 787q-48 -6 -86 -29.5t-89 -65.5q-43 -36 -72 -53.5t-60 -17.5q-27 0 -63 21q-34 18 -54 18q-28 0 -45.5 -22t-34.5 -76l-18 -56h-39z" />
<glyph unicode="w" horiz-adv-x="1392" d="M5 222q0 121 88 245.5t228.5 245t366.5 289.5q-51 -8 -93 -31.5t-95 -63.5q-49 -36 -78.5 -52.5t-62.5 -16.5q-26 0 -66 21q-34 18 -53 18q-28 0 -45.5 -21.5t-35.5 -76.5l-18 -56h-39l46 149q36 117 84.5 163t109.5 46q38 0 94 -26q39 -17 68.5 -25.5t71.5 -8.5 q80 0 156 44l24 39l43 -21q-212 -217 -346.5 -449.5t-134.5 -421.5q0 -78 24.5 -114.5t78.5 -36.5q72 0 144 55q-24 58 -24 136q0 119 54 231t132.5 182t142.5 70q79 0 79 -135q0 -109 -44.5 -214.5t-131.5 -194.5q49 -94 155 -94q103 0 174.5 82t106.5 206t35 250 q0 41 -2 61q-116 45 -192 108t-76 164q0 50 32 84.5t87 34.5q94 0 138 -107.5t54 -247.5q3 -37 3 -77q0 -166 -53.5 -323.5t-161 -259t-260.5 -101.5q-165 0 -232 112q-130 -112 -302 -112q-90 0 -151.5 33t-92 90t-30.5 128zM738 352q0 -70 19 -124q68 79 106.5 175.5 t38.5 190.5q0 96 -35 96q-28 0 -58.5 -49.5t-50.5 -128t-20 -160.5z" />
<glyph unicode="x" horiz-adv-x="1157" d="M-84 100q0 45 20.5 80.5t56 55t78.5 19.5q122 0 180 -139q100 114 179 304l-54 467q-8 49 -25.5 67t-46.5 18q-21 0 -39.5 -12.5t-39 -49t-44.5 -105.5l-27 -76h-38l51 150q70 208 281 208q68 0 113.5 -19.5t73.5 -67t37 -130.5l13 -119q55 122 126 212q97 124 224 124 q67 0 109 -36t42 -98q0 -64 -43 -106.5t-111 -42.5q-61 0 -109.5 34.5t-72.5 104.5q-89 -102 -156 -273l56 -498q9 -52 25.5 -73t44.5 -21q31 0 60.5 37t64.5 139l27 76h38l-51 -150q-69 -209 -275 -209q-205 0 -226 201l-19 166q-62 -140 -147 -241q-106 -126 -226 -126 q-71 0 -110.5 34.5t-39.5 94.5z" />
<glyph unicode="y" horiz-adv-x="988" d="M-222 -270q0 54 40 90t103 36q121 0 219 -140q138 66 266 187l-161 979q-10 57 -20.5 77.5t-31.5 20.5q-22 0 -43 -31t-55 -122l-36 -99h-39l51 149q41 117 104 163.5t149 46.5q88 0 137 -48.5t67 -172.5l96 -702q87 126 152.5 261t98.5 259q-82 45 -136 113t-54 147 q0 67 37 105t101 38q136 0 136 -185q0 -124 -56 -284t-148.5 -321t-199.5 -290q-103 -125 -229 -220.5t-261 -141.5q-84 -30 -144 -30q-67 0 -105 30.5t-38 84.5z" />
<glyph unicode="z" horiz-adv-x="949" d="M-107 0l995 956q-57 -26 -162 -96q-76 -50 -123 -74.5t-91 -24.5q-33 0 -58.5 8.5t-60.5 26.5q-31 15 -51 22.5t-45 7.5q-36 0 -56.5 -19.5t-20.5 -52.5q0 -78 119 -116l-12 -31q-216 49 -216 212q0 66 32.5 124.5t98.5 95t162 36.5q57 0 100 -13.5t100 -39.5t99.5 -39 t98.5 -13q61 0 103 19.5t83 68.5h61l-981 -944q54 25 140 82q69 45 112 67t83 22q35 0 60.5 -8.5t60.5 -26.5q29 -15 50.5 -23t46.5 -8q36 0 56 20.5t20 51.5q0 45 -33.5 75t-85.5 42l12 30q110 -25 163 -78.5t53 -139.5q0 -68 -28.5 -122.5t-86.5 -87t-143 -32.5 q-57 0 -101.5 14t-101.5 41q-60 28 -104 41.5t-102 13.5t-101 -19t-85 -69h-60z" />
<glyph unicode="{" horiz-adv-x="740" d="M58 0zM58 -150q0 81 39 239q67 271 67 376q-1 62 -24 90t-72 31h-10l6 37h10q66 5 110.5 49.5t83.5 148t87 300.5q48 193 119.5 296.5t179 144t276.5 40.5l-10 -39q-72 -1 -110.5 -28.5t-73 -117.5t-86.5 -296q-45 -179 -116.5 -283.5t-170 -156t-244.5 -76.5 q113 -26 180 -66t96.5 -97.5t29.5 -137.5t-33 -215q-63 -253 -60 -332q0 -60 27.5 -80.5t89.5 -22.5l-10 -39q-144 -1 -227.5 25t-118.5 77.5t-35 132.5z" />
<glyph unicode="|" horiz-adv-x="756" d="M307 -399v2156h180v-2156h-180z" />
<glyph unicode="}" horiz-adv-x="739" d="M-188 -385l10 39q72 1 110.5 28.5t73 117.5t86.5 296q45 179 116.5 283.5t170 156t244.5 76.5q-113 26 -180 66t-96.5 97.5t-29.5 137.5t33 215q63 253 60 332q0 60 -27.5 80.5t-89.5 22.5l10 39q144 1 227.5 -25t118.5 -77.5t35 -132.5t-39 -239q-67 -271 -67 -376 q1 -62 24 -90t72 -31h10l-6 -37h-10q-66 -5 -110.5 -49.5t-83.5 -148t-87 -300.5q-48 -193 -119.5 -296.5t-179 -144t-276.5 -40.5z" />
<glyph unicode="~" horiz-adv-x="1322" d="M99 487q57 147 167 232.5t245 85.5q71 0 126 -21t128 -62q68 -39 118 -58t111 -19q135 0 209 119l28 -10q-57 -147 -166.5 -232.5t-244.5 -85.5q-71 0 -125.5 21t-128.5 62q-70 39 -119 58t-110 19q-135 0 -209 -119z" />
<glyph unicode="&#xa1;" horiz-adv-x="607" d="M-86 -264q0 12 1 18q7 68 43.5 152.5t111.5 229.5q81 158 133.5 275.5t87.5 241.5l37 -6q-35 -135 -46 -269.5t-15 -320.5q-4 -167 -11 -244q-4 -95 -55.5 -146.5t-145.5 -51.5q-66 0 -103.5 31.5t-37.5 89.5zM230 892q0 55 26 99.5t71 70.5t100 26q66 0 102 -33t36 -92 q0 -49 -27 -93t-73 -71.5t-99 -27.5q-64 0 -100 32.5t-36 88.5z" />
<glyph unicode="&#xa2;" horiz-adv-x="978" d="M18 286q0 163 76 337.5t215.5 301.5t319.5 155l99 370h45l-98 -364l42 1q73 0 129.5 -25.5t87.5 -70.5t31 -101q0 -55 -27 -107.5t-73.5 -85.5t-101.5 -33q-51 0 -84 32t-33 86t25.5 100.5t68.5 78.5t92 45q-33 41 -97 41q-35 0 -75 -16l-251 -934q32 -15 71 -15 q148 0 270 180l41 -16q-69 -111 -175 -188.5t-241 -85.5l-92 -343h-45l92 342q-143 4 -227.5 84t-84.5 231zM324 286q0 -111 47 -161l236 875q-77 -56 -142 -167.5t-103 -255t-38 -291.5z" />
<glyph unicode="&#xa3;" horiz-adv-x="1376" d="M-58 -8q0 24 23 53.5t69 55.5t111 40q43 83 76.5 168.5t68.5 218.5l21 80h-199l13 41h197l44 164h-198l12 41h197l12 45q73 277 243.5 442.5t448.5 165.5q75 0 129.5 -25t83 -67.5t28.5 -94.5q0 -59 -24 -106t-66.5 -73t-94.5 -26q-63 0 -100.5 33t-37.5 94 q0 75 44.5 130t116.5 71q-6 14 -30 24t-55 10q-83 0 -140 -42.5t-94 -119t-68 -193.5l-70 -268h278l-13 -41h-276l-11 -43q-18 -69 -43 -121h287l-12 -41h-296q-39 -67 -86.5 -116t-128.5 -119q-74 -63 -123.5 -112.5t-93.5 -114.5q195 166 379 166q67 0 121 -12t123 -34 q57 -18 91.5 -26.5t71.5 -8.5q45 0 75.5 23.5t30.5 65.5q0 86 -143 114l10 37q111 -17 186.5 -73t75.5 -153q0 -74 -40.5 -137t-112.5 -100t-162 -37q-77 0 -137.5 21.5t-139.5 64.5q-82 43 -140.5 64.5t-134.5 21.5q-92 0 -170 -30q-40 -69 -94.5 -105.5t-105.5 -36.5 q-15 0 -21 4.5t-6 16.5z" />
<glyph unicode="&#xa4;" horiz-adv-x="1347" d="M170 283l119 118q-58 95 -58 213q0 112 58 213l-119 120l174 174l118 -119q96 59 214 59t213 -60l121 121l174 -174l-120 -121q59 -99 59 -213q0 -115 -59 -214l119 -119l-174 -175l-121 121q-98 -57 -212 -57q-120 0 -213 57l-118 -119zM443 614q0 -74 31.5 -131t86 -89 t118.5 -32t118 32t85.5 89t31.5 131t-31.5 132t-85.5 90.5t-118 32.5q-65 0 -119 -32.5t-85.5 -90.5t-31.5 -132z" />
<glyph unicode="&#xa5;" horiz-adv-x="1590" d="M204 1102l53 158q38 116 110.5 167.5t177.5 51.5q134 0 210.5 -83t114 -235t66.5 -413q68 191 154 345t181 259q118 127 243 127q59 0 102 -24t65.5 -64.5t22.5 -89.5q0 -51 -24 -93t-66.5 -66.5t-95.5 -24.5q-67 0 -104 34t-37 91q0 66 43.5 117.5t110.5 71.5 q-12 10 -33 10q-60 -1 -124 -48q-58 -42 -131 -138.5t-150.5 -246.5t-142.5 -341l-14 -59h273l-10 -41h-274l-31 -123h270l-10 -41h-270l-47 -186q-13 -55 -13 -83q0 -37 16.5 -56t49.5 -26.5t92 -10.5l-10 -41q-114 6 -352 6q-222 0 -330 -6l10 41q75 3 112 16t59 48.5 t40 111.5l47 186h-287l10 41h287l32 123h-284l10 41h284l13 50q-31 279 -89 474.5t-146 195.5q-35 0 -57.5 -25.5t-37.5 -70.5l-44 -130h-45z" />
<glyph unicode="&#xa6;" horiz-adv-x="763" d="M311 -399v1067h180v-1067h-180zM311 786v971h180v-971h-180z" />
<glyph unicode="&#xa7;" horiz-adv-x="1179" d="M-25 -198q0 49 25.5 93.5t69.5 71.5t97 27q58 0 91 -28.5t33 -76.5q0 -63 -41 -113t-105 -75q10 -21 54 -34t93 -13q72 0 134.5 29t101 87t38.5 142q0 49 -23 90.5t-59.5 77t-105.5 93.5l-46 38q-96 80 -145.5 128.5t-79.5 102.5t-30 117q0 244 338 408q-94 105 -94 213 q0 129 83.5 225t213.5 146.5t264 50.5q70 0 144.5 -16.5t128 -58t53.5 -111.5q0 -50 -26 -94.5t-70.5 -71.5t-98.5 -27q-59 0 -91 30.5t-32 80.5q0 59 42 108t103 74q-9 22 -53 34.5t-94 12.5q-71 0 -133.5 -29t-101 -87t-38.5 -141q0 -51 23.5 -93.5t62 -79t109.5 -95.5 q13 -10 39 -32q97 -82 145.5 -130t78.5 -101.5t30 -117.5q0 -242 -337 -407q93 -105 93 -213q0 -129 -83.5 -225t-213 -146.5t-264.5 -50.5q-72 0 -145 16t-125.5 57.5t-52.5 113.5zM324 730q0 -46 26.5 -91t79.5 -95t144 -122q108 -85 164 -142q49 37 78 79.5t36 100.5 q3 16 3 31q0 47 -25.5 90.5t-76.5 91t-146 122.5q-108 86 -163 141q-120 -92 -120 -206z" />
<glyph unicode="&#xa8;" horiz-adv-x="799" d="M11 1384q0 53 24.5 92.5t65 60t87.5 20.5q64 0 98.5 -37.5t34.5 -99.5q0 -53 -25 -92t-66 -59.5t-87 -20.5q-65 0 -98.5 37t-33.5 99zM477 1384q0 53 24.5 92.5t65 60t87.5 20.5q64 0 98.5 -37.5t34.5 -99.5q0 -53 -25 -92t-66 -59.5t-87 -20.5q-65 0 -98.5 37t-33.5 99z " />
<glyph unicode="&#xa9;" horiz-adv-x="1865" d="M166 786q0 222 109.5 409.5t296.5 297t409 109.5q221 0 408.5 -109.5t297 -297t109.5 -409.5q0 -221 -109.5 -408.5t-297 -297t-408.5 -109.5q-222 0 -409 109.5t-296.5 297t-109.5 408.5zM248 786q0 -203 98.5 -375t266.5 -273t368 -101q199 0 367.5 101t267 273 t98.5 375q0 204 -98.5 376t-267 273t-367.5 101q-200 0 -368 -101t-266.5 -273t-98.5 -376zM519 782q0 180 65 307t180 192t263 65q92 0 176.5 -28t138 -85.5t53.5 -140.5q0 -48 -21 -85.5t-57.5 -58.5t-82.5 -21q-72 0 -115 42.5t-43 112.5q0 61 38.5 105.5t96.5 58.5 q-19 23 -59.5 38t-84.5 15q-113 0 -176 -109.5t-63 -380.5q0 -163 38 -263t98.5 -142.5t134.5 -42.5q170 0 268 204l37 -13q-26 -84 -78.5 -157t-135.5 -119.5t-193 -46.5q-138 0 -245.5 59.5t-170 184t-62.5 309.5z" />
<glyph unicode="&#xaa;" horiz-adv-x="1090" d="M203 927q0 124 79.5 253.5t203 214t245.5 84.5q80 0 87 -71l15 52q153 0 267 19l-178 -558q-10 -32 -10 -49q0 -35 36 -35q57 0 90 91l19 51h38l-27 -75q-32 -87 -91.5 -127t-148.5 -40q-150 0 -150 132q0 29 10 79q-59 -115 -131 -163t-157 -48q-95 0 -146 49t-51 141z M475 938q0 -105 47 -105q31 0 70 39t77.5 106t68.5 148l65 228q-2 39 -16 57.5t-34 18.5q-53 0 -119 -74t-112.5 -189t-46.5 -229z" />
<glyph unicode="&#xab;" horiz-adv-x="1200" d="M37 505l6 26q177 111 338.5 246.5t335.5 309.5h36q-41 -87 -113 -200.5t-152.5 -214.5t-143.5 -154q42 -50 83 -147.5t70 -206.5t37 -193h-37q-106 166 -216.5 297.5t-243.5 236.5zM486 505l6 26q161 100 308.5 224.5t304.5 282.5h37q-33 -78 -97 -182t-135.5 -196.5 t-127.5 -141.5q36 -46 72 -134.5t61.5 -188t30.5 -175.5h-36q-102 154 -202.5 273t-221.5 212z" />
<glyph unicode="&#xac;" horiz-adv-x="1323" d="M174 696l19 62h1026l-121 -420h-74l103 358h-953z" />
<glyph unicode="&#xad;" horiz-adv-x="1036" />
<glyph unicode="&#xae;" horiz-adv-x="1403" d="M244 1030q0 155 77 286.5t208 208.5t286 77t286 -77t208 -208.5t77 -286.5t-77 -286t-208 -208t-286 -77t-286 77t-208 208t-77 286zM330 1030q0 -136 65 -252.5t176.5 -185t243.5 -68.5t243.5 68.5t176.5 185t65 252.5q0 137 -65 253t-176 184.5t-244 68.5t-244 -68.5 t-176 -184.5t-65 -253zM536 721v31q20 2 29.5 7.5t13.5 20.5t4 47v449q0 33 -4 48.5t-13.5 21.5t-29.5 8v30q29 -2 127 -2l128 1q21 1 48 1q250 0 250 -161q0 -56 -47.5 -102.5t-163.5 -64.5q64 -6 101.5 -20.5t55.5 -38.5t25 -61l31 -134q4 -25 10.5 -36.5t19.5 -11.5 t24 12l15 -20q-32 -38 -107 -38q-65 0 -98.5 21.5t-42.5 67.5l-30 149q-7 36 -17.5 54t-35.5 27t-76 12v-212q0 -32 4 -47t13.5 -20.5t30.5 -7.5v-31q-35 0 -55 1l-74 1l-87 -1q-20 -1 -49 -1zM753 1073h25q139 0 139 138q0 143 -110 143q-33 0 -43.5 -12t-10.5 -46v-223z " />
<glyph unicode="&#xaf;" horiz-adv-x="741" d="M210 1407l12 51h688l-12 -51h-688z" />
<glyph unicode="&#xb0;" horiz-adv-x="682" d="M286 1434q0 73 34 129t90.5 86t123.5 30t124 -30t91 -86t34 -129q0 -75 -34 -131t-91 -86.5t-124 -30.5t-123.5 30.5t-90.5 86.5t-34 131zM336 1433q0 -66 29 -113.5t74.5 -71.5t94.5 -24q48 0 94 24t75.5 71.5t29.5 113.5q0 64 -29.5 111.5t-75.5 72t-94 24.5t-94 -24.5 t-75 -72t-29 -111.5z" />
<glyph unicode="&#xb1;" horiz-adv-x="1265" d="M-49 0l18 62h1026l-18 -62h-1026zM0 0zM145 696l18 62h477l138 483h73l-137 -483h475l-18 -62h-475l-138 -481h-73l137 481h-477z" />
<glyph unicode="&#xb2;" horiz-adv-x="729" d="M154 895l8 37q31 22 64 43q104 70 181.5 129.5t138 133.5t60.5 145q0 84 -100 84q-112 0 -205 -99l-28 23q58 66 146 109.5t198 43.5q85 0 134.5 -28.5t49.5 -86.5q0 -56 -43 -109.5t-103 -96.5t-154 -102q-73 -45 -106 -68q40 0 127 -19q92 -18 125 -18q39 0 61.5 15.5 t22.5 44.5q0 22 -8 38l35 14q33 -48 33 -99q0 -62 -49 -102t-140 -40q-46 0 -133 17q-113 21 -180 21q-36 0 -63.5 -6.5t-71.5 -23.5z" />
<glyph unicode="&#xb3;" horiz-adv-x="695" d="M76 711v37q117 9 227.5 49.5t181 109.5t70.5 158q0 97 -88 106q-39 -20 -65 -20q-37 0 -37 27q0 37 90 34q76 32 121 79.5t45 102.5q0 39 -23.5 58t-64.5 19q-109 0 -221 -105l-29 25q55 60 147 106.5t195 46.5q85 0 136.5 -28t51.5 -82q0 -55 -52.5 -103t-130 -82 t-151.5 -49q125 -2 199 -38t74 -113q0 -96 -106 -169.5t-263 -116t-307 -52.5z" />
<glyph unicode="&#xb4;" horiz-adv-x="457" d="M259 1246q56 79 154 242q43 74 68.5 112.5t57.5 70.5q23 25 53 39t59 14q43 0 75 -29q27 -27 27 -63q0 -55 -59 -112q-29 -29 -64.5 -54.5t-106.5 -70.5q-144 -91 -243 -168z" />
<glyph unicode="&#xb6;" horiz-adv-x="1451" d="M80 469q0 268 128.5 493.5t349.5 357.5t487 132q12 0 201 -3q87 -3 167 -3q134 0 197 4l-10 -39q-65 -3 -103 -18.5t-58.5 -44t-33.5 -76.5l-292 -1116q-67 -256 -213.5 -398.5t-401.5 -142.5q-129 0 -207 37t-79 117q0 43 21.5 79t61.5 57t93 21q67 0 109 -30t42 -85 q0 -99 -108 -155q27 -7 57 -7q61 0 103.5 36t74 104.5t65.5 183.5q-339 0 -495 131t-156 365zM297 719q-1 -6 75.5 -16t202.5 -17.5t269 -7.5q-40 -176 -60 -327t-20 -223q0 -30 4 -30q52 193 192 716.5t142 528.5q-7 0 -47.5 -85t-92.5 -218.5t-95 -277.5q-141 0 -271 -8.5 t-214 -19t-85 -15.5z" />
<glyph unicode="&#xb7;" horiz-adv-x="592" d="M112 383zM112 504q0 55 26 99.5t71 70.5t100 26q66 0 102 -33t36 -92q0 -49 -27 -93t-73 -71.5t-99 -27.5q-64 0 -100 32.5t-36 88.5z" />
<glyph unicode="&#xb8;" horiz-adv-x="467" d="M-93 -345l13 32q66 -23 124 -23q54 0 107 21t53 73q0 22 -15 34.5t-42 12.5q-35 0 -64 -14l141 209h58l-89 -141q62 20 109 20q55 0 89.5 -22t34.5 -63q0 -61 -49 -101t-126 -59t-160 -19q-58 0 -107.5 12.5t-76.5 27.5z" />
<glyph unicode="&#xb9;" horiz-adv-x="549" d="M218 1298l10 39q102 28 178 61.5t125 64t117 79.5h39l-207 -647h-195l156 480q-63 -28 -109.5 -45t-113.5 -32z" />
<glyph unicode="&#xba;" horiz-adv-x="1006" d="M214 989q0 100 62 215.5t180.5 195t278.5 79.5q151 0 236 -63.5t85 -188.5q0 -100 -61.5 -215t-180 -194t-278.5 -79q-151 0 -236.5 63t-85.5 187zM472 895q0 -119 74 -119q61 0 119.5 84.5t95.5 213t37 249.5q0 119 -74 119q-60 0 -119 -85t-96 -213.5t-37 -248.5z" />
<glyph unicode="&#xbb;" horiz-adv-x="1198" d="M19 20q34 79 97.5 182.5t134 195.5t125.5 141q-35 46 -71 135t-61 189t-31 175h37q103 -156 203 -274.5t221 -211.5l-7 -26q-294 -182 -611 -506h-37zM406 -29q40 87 112.5 200.5t152.5 214t143 153.5q-41 51 -82 148.5t-70 207t-36 192.5h37q106 -167 216.5 -298.5 t243.5 -236.5l-6 -26q-179 -111 -341 -246.5t-333 -308.5h-37z" />
<glyph unicode="&#xbc;" horiz-adv-x="1368" d="M-233 -86l1706 1774l31 -27l-1706 -1774zM0 0zM218 1298l10 39q102 28 178 61.5t125 64t117 79.5h39l-207 -647h-195l156 480q-63 -28 -109.5 -45t-113.5 -32zM263 16l10 37l688 596h39l-149 -512h107l-36 -121h-107l-55 -190h-155l55 190h-397zM425 137h270l89 308z" />
<glyph unicode="&#xbd;" horiz-adv-x="1272" d="M-233 -86l1706 1774l31 -27l-1706 -1774zM0 0zM218 1298l10 39q102 28 178 61.5t125 64t117 79.5h39l-207 -647h-195l156 480q-63 -28 -109.5 -45t-113.5 -32zM477 0l8 37q31 22 64 43q104 70 181.5 129.5t138 133.5t60.5 145q0 84 -100 84q-112 0 -205 -99l-28 23 q58 66 146 109.5t198 43.5q85 0 134.5 -28.5t49.5 -86.5q0 -56 -43 -109.5t-103 -96.5t-154 -102q-73 -45 -106 -68q40 0 127 -19q92 -18 125 -18q39 0 61.5 15.5t22.5 44.5q0 22 -8 38l35 14q33 -48 33 -99q0 -62 -49 -102t-140 -40q-46 0 -133 17q-113 21 -180 21 q-36 0 -63.5 -6.5t-71.5 -23.5z" />
<glyph unicode="&#xbe;" horiz-adv-x="1536" d="M-28 -86l1706 1774l31 -27l-1706 -1774zM0 0zM76 711v37q117 9 227.5 49.5t181 109.5t70.5 158q0 97 -88 106q-39 -20 -65 -20q-37 0 -37 27q0 37 90 34q76 32 121 79.5t45 102.5q0 39 -23.5 58t-64.5 19q-109 0 -221 -105l-29 25q55 60 147 106.5t195 46.5 q85 0 136.5 -28t51.5 -82q0 -55 -52.5 -103t-130 -82t-151.5 -49q125 -2 199 -38t74 -113q0 -96 -106 -169.5t-263 -116t-307 -52.5zM468 16l10 37l688 596h39l-149 -512h107l-36 -121h-107l-55 -190h-155l55 190h-397zM630 137h270l89 308z" />
<glyph unicode="&#xbf;" horiz-adv-x="999" d="M-91 -156q0 60 32.5 110t96.5 100t191 135q22 16 20 14q100 69 147 106.5t73.5 78.5t26.5 92q0 54 -33.5 90t-101.5 36q-45 0 -90 -13.5t-66 -34.5q38 -2 69.5 -33t31.5 -75q0 -33 -18 -60.5t-50 -43.5t-72 -16q-51 0 -82.5 26.5t-31.5 78.5q0 72 62 120t154 70.5 t182 22.5q97 0 173.5 -24.5t120.5 -72.5t44 -114q0 -63 -38.5 -119t-95.5 -101.5t-157 -114.5l-20 -14q-105 -70 -158.5 -111.5t-81 -83.5t-27.5 -93q0 -66 47 -103t125 -37q49 0 102 13t76 38q-50 6 -85.5 42t-35.5 86q0 39 21 70t56.5 48.5t77.5 17.5q58 0 96.5 -33 t38.5 -94q0 -79 -65 -131.5t-165.5 -77t-208.5 -24.5q-115 0 -201 27t-133 78.5t-47 123.5zM429 892q0 55 26 99.5t71 70.5t100 26q66 0 102 -33t36 -92q0 -49 -27 -93t-73 -71.5t-99 -27.5q-64 0 -100 32.5t-36 88.5z" />
<glyph unicode="&#xc0;" d="M-189 0l9 41q53 14 103.5 61t128.5 156l854 1202q34 -2 53 -2q21 0 51 2l82 -1288q6 -67 35.5 -98t65.5 -33l-8 -41q-105 6 -297 6q-209 0 -308 -6l9 41q66 3 103.5 15.5t55.5 43.5t18 90l-1 23l-18 336h-443l-181 -255q-65 -92 -65 -151q0 -92 171 -102l-9 -41 q-172 6 -268 6q-77 0 -141 -6zM0 0zM333 590h412l-30 541zM596 1845q0 24 14 49q30 50 94 50q44 0 76 -23q28 -18 51 -43t60 -74q93 -121 176 -202l-17 -23q-111 51 -241 96q-105 35 -149 65q-29 18 -46.5 46t-17.5 59z" />
<glyph unicode="&#xc1;" d="M-189 0l9 41q53 14 103.5 61t128.5 156l854 1202q34 -2 53 -2q21 0 51 2l82 -1288q6 -67 35.5 -98t65.5 -33l-8 -41q-105 6 -297 6q-209 0 -308 -6l9 41q66 3 103.5 15.5t55.5 43.5t18 90l-1 23l-18 336h-443l-181 -255q-65 -92 -65 -151q0 -92 171 -102l-9 -41 q-172 6 -268 6q-77 0 -141 -6zM0 0zM333 590h412l-30 541zM827 1605q96 76 215 189q64 60 99 89.5t75 51.5q43 24 88 24q70 0 99 -56q10 -20 10 -41q0 -34 -25.5 -64.5t-66.5 -53.5q-35 -20 -77.5 -34t-118.5 -36q-178 -52 -284 -93z" />
<glyph unicode="&#xc2;" d="M-189 0l9 41q53 14 103.5 61t128.5 156l854 1202q34 -2 53 -2q21 0 51 2l82 -1288q6 -67 35.5 -98t65.5 -33l-8 -41q-105 6 -297 6q-209 0 -308 -6l9 41q66 3 103.5 15.5t55.5 43.5t18 90l-1 23l-18 336h-443l-181 -255q-65 -92 -65 -151q0 -92 171 -102l-9 -41 q-172 6 -268 6q-77 0 -141 -6zM0 0zM333 590h412l-30 541zM515 1607q169 53 317 138.5t238 179.5h37q46 -114 110.5 -189t173.5 -129l-8 -28q-135 23 -224.5 51t-188.5 71q-214 -80 -445 -122z" />
<glyph unicode="&#xc3;" d="M-189 0l9 41q53 14 103.5 61t128.5 156l854 1202q34 -2 53 -2q21 0 51 2l82 -1288q6 -67 35.5 -98t65.5 -33l-8 -41q-105 6 -297 6q-209 0 -308 -6l9 41q66 3 103.5 15.5t55.5 43.5t18 90l-1 23l-18 336h-443l-181 -255q-65 -92 -65 -151q0 -92 171 -102l-9 -41 q-172 6 -268 6q-77 0 -141 -6zM0 0zM333 590h412l-30 541zM551 1613q56 145 147.5 215t192.5 70q51 0 91 -11.5t68.5 -28t66.5 -43.5q47 -34 81.5 -50t81.5 -16q45 0 83 27.5t75 90.5l37 -10q-55 -144 -146.5 -214.5t-193.5 -70.5q-51 0 -91 11.5t-68.5 28t-66.5 43.5 q-46 34 -81 50.5t-82 16.5q-44 0 -82.5 -28t-75.5 -91z" />
<glyph unicode="&#xc4;" d="M-189 0l9 41q53 14 103.5 61t128.5 156l854 1202q34 -2 53 -2q21 0 51 2l82 -1288q6 -67 35.5 -98t65.5 -33l-8 -41q-105 6 -297 6q-209 0 -308 -6l9 41q66 3 103.5 15.5t55.5 43.5t18 90l-1 23l-18 336h-443l-181 -255q-65 -92 -65 -151q0 -92 171 -102l-9 -41 q-172 6 -268 6q-77 0 -141 -6zM0 0zM333 590h412l-30 541zM573 1704q0 53 24.5 92.5t65 60.5t87.5 21q64 0 98.5 -38t34.5 -99q0 -54 -25 -93t-66 -59t-87 -20q-65 0 -98.5 36.5t-33.5 98.5zM1064 1704q0 53 24.5 92.5t65 60.5t87.5 21q64 0 98.5 -38t34.5 -99 q0 -54 -25 -93t-66 -59t-87 -20q-65 0 -98.5 36.5t-33.5 98.5z" />
<glyph unicode="&#xc5;" d="M-189 0l9 41q53 14 103.5 61t128.5 156l854 1202q34 -2 53 -2q21 0 51 2l82 -1288q6 -67 35.5 -98t65.5 -33l-8 -41q-105 6 -297 6q-209 0 -308 -6l9 41q66 3 103.5 15.5t55.5 43.5t18 90l-1 23l-18 336h-443l-181 -255q-65 -92 -65 -151q0 -92 171 -102l-9 -41 q-172 6 -268 6q-77 0 -141 -6zM0 0zM333 590h412l-30 541zM773 1696q0 62 33 113t90 80.5t125 29.5q56 0 102 -21.5t72 -61.5t26 -92q0 -60 -35.5 -111.5t-94 -82t-125.5 -30.5q-84 0 -138.5 47.5t-54.5 128.5zM827 1697q0 -43 21 -73t55.5 -45.5t72.5 -15.5q49 0 93.5 23.5 t71.5 65t27 90.5q0 43 -22.5 73.5t-58 45.5t-73.5 15q-49 0 -92 -25t-69 -66.5t-26 -87.5z" />
<glyph unicode="&#xc6;" horiz-adv-x="1853" d="M-176 0v41q63 3 176 131l992 1168q-3 39 -33.5 52.5t-104.5 16.5l10 41q68 -2 218 -4l116 137h53l-117 -138q116 -1 217.5 -1h177.5q293 0 421 6q-32 -89 -78 -242q-19 -68 -27 -127h-45q15 85 15 145q0 96 -42.5 136.5t-138.5 40.5h-129q-71 0 -106.5 -12t-57 -46.5 t-41.5 -111.5l-128 -483h159q58 0 96.5 30.5t62 76t52.5 122.5h45q-28 -85 -56 -199l-13 -51q-22 -75 -54 -250h-45q0 10 5 63q6 44 6 64q0 45 -23 72t-84 31h-162l-131 -492q-17 -66 -17 -99q0 -30 13.5 -45t41.5 -20.5t79 -5.5h149q99 0 162.5 34t110 111t94.5 218h45 q-19 -50 -43 -148q-35 -127 -53 -262q-139 6 -463 6q-441 0 -664 -6l9 41q74 3 110.5 16t58.5 48t42 112l131 492h-328l-438 -516q-59 -67 -59 -97q0 -45 126 -55v-41q-56 6 -176 6q-88 0 -137 -6zM543 750h304l128 483l9 35z" />
<glyph unicode="&#xc7;" horiz-adv-x="1419" d="M86 478q0 242 128.5 474.5t353.5 379.5t498 147q79 0 135.5 -18t94 -46t74.5 -69q15 -18 30 -18q37 0 83 122h43q-68 -177 -131 -471h-45q16 98 16 163q0 94 -33 154q-73 134 -242 134q-165 0 -313 -144.5t-237.5 -375t-89.5 -472.5q0 -203 73.5 -304t204.5 -101 q78 0 161 36t144 99q53 55 93 126.5t92 197.5h45q-97 -355 -121 -492h-45q6 44 6 70q0 52 -25 52q-16 0 -42 -18q-90 -61 -178.5 -95t-197.5 -38l-46 -100q57 20 118 20q64 0 101 -24.5t37 -72.5q0 -61 -51.5 -101t-131 -59t-165.5 -19q-69 0 -129.5 12.5t-94.5 27.5l13 32 q76 -23 165 -23q67 0 125.5 21t58.5 73q0 47 -65 47q-36 0 -72 -14l82 180q-260 7 -390 137.5t-130 369.5z" />
<glyph unicode="&#xc8;" horiz-adv-x="1282" d="M-88 0l9 41q74 3 111 16t58.5 48t41.5 112l271 1016q18 70 18 99q0 30 -14 46t-42.5 22.5t-81.5 8.5l11 41q221 -6 664 -6q291 0 417 6q-50 -134 -78 -242q-17 -66 -27 -127h-46q3 41 3 75q0 93 -22.5 146.5t-71.5 77t-133 23.5h-64q-72 0 -107.5 -12t-57 -46.5 t-42.5 -111.5l-129 -483h76q102 0 171 71.5t110 173.5h46q-33 -99 -63 -217l-13 -49q-25 -93 -58 -266h-46q2 30 2 45q0 201 -171 201h-65l-131 -492q-18 -64 -18 -99q0 -30 13.5 -45t42 -20.5t80.5 -5.5h76q111 0 186.5 34t134.5 111.5t121 217.5h46q-22 -58 -44 -148 q-34 -124 -54 -262q-139 6 -465 6q-443 0 -665 -6zM0 0zM513 1845q0 24 14 49q30 50 94 50q44 0 76 -23q28 -18 51 -43t60 -74q93 -121 176 -202l-17 -23q-111 51 -241 96q-105 35 -149 65q-29 18 -46.5 46t-17.5 59z" />
<glyph unicode="&#xc9;" horiz-adv-x="1282" d="M-88 0l9 41q74 3 111 16t58.5 48t41.5 112l271 1016q18 70 18 99q0 30 -14 46t-42.5 22.5t-81.5 8.5l11 41q221 -6 664 -6q291 0 417 6q-50 -134 -78 -242q-17 -66 -27 -127h-46q3 41 3 75q0 93 -22.5 146.5t-71.5 77t-133 23.5h-64q-72 0 -107.5 -12t-57 -46.5 t-42.5 -111.5l-129 -483h76q102 0 171 71.5t110 173.5h46q-33 -99 -63 -217l-13 -49q-25 -93 -58 -266h-46q2 30 2 45q0 201 -171 201h-65l-131 -492q-18 -64 -18 -99q0 -30 13.5 -45t42 -20.5t80.5 -5.5h76q111 0 186.5 34t134.5 111.5t121 217.5h46q-22 -58 -44 -148 q-34 -124 -54 -262q-139 6 -465 6q-443 0 -665 -6zM0 0zM744 1605q96 76 215 189q64 60 99 89.5t75 51.5q43 24 88 24q70 0 99 -56q10 -20 10 -41q0 -34 -25.5 -64.5t-66.5 -53.5q-35 -20 -77.5 -34t-118.5 -36q-178 -52 -284 -93z" />
<glyph unicode="&#xca;" horiz-adv-x="1282" d="M-88 0l9 41q74 3 111 16t58.5 48t41.5 112l271 1016q18 70 18 99q0 30 -14 46t-42.5 22.5t-81.5 8.5l11 41q221 -6 664 -6q291 0 417 6q-50 -134 -78 -242q-17 -66 -27 -127h-46q3 41 3 75q0 93 -22.5 146.5t-71.5 77t-133 23.5h-64q-72 0 -107.5 -12t-57 -46.5 t-42.5 -111.5l-129 -483h76q102 0 171 71.5t110 173.5h46q-33 -99 -63 -217l-13 -49q-25 -93 -58 -266h-46q2 30 2 45q0 201 -171 201h-65l-131 -492q-18 -64 -18 -99q0 -30 13.5 -45t42 -20.5t80.5 -5.5h76q111 0 186.5 34t134.5 111.5t121 217.5h46q-22 -58 -44 -148 q-34 -124 -54 -262q-139 6 -465 6q-443 0 -665 -6zM0 0zM432 1607q169 53 317 138.5t238 179.5h37q46 -114 110.5 -189t173.5 -129l-8 -28q-135 23 -224.5 51t-188.5 71q-214 -80 -445 -122z" />
<glyph unicode="&#xcb;" horiz-adv-x="1282" d="M-88 0l9 41q74 3 111 16t58.5 48t41.5 112l271 1016q18 70 18 99q0 30 -14 46t-42.5 22.5t-81.5 8.5l11 41q221 -6 664 -6q291 0 417 6q-50 -134 -78 -242q-17 -66 -27 -127h-46q3 41 3 75q0 93 -22.5 146.5t-71.5 77t-133 23.5h-64q-72 0 -107.5 -12t-57 -46.5 t-42.5 -111.5l-129 -483h76q102 0 171 71.5t110 173.5h46q-33 -99 -63 -217l-13 -49q-25 -93 -58 -266h-46q2 30 2 45q0 201 -171 201h-65l-131 -492q-18 -64 -18 -99q0 -30 13.5 -45t42 -20.5t80.5 -5.5h76q111 0 186.5 34t134.5 111.5t121 217.5h46q-22 -58 -44 -148 q-34 -124 -54 -262q-139 6 -465 6q-443 0 -665 -6zM0 0zM490 1704q0 53 24.5 92.5t65 60.5t87.5 21q64 0 98.5 -38t34.5 -99q0 -54 -25 -93t-66 -59t-87 -20q-65 0 -98.5 36.5t-33.5 98.5zM981 1704q0 53 24.5 92.5t65 60.5t87.5 21q64 0 98.5 -38t34.5 -99q0 -54 -25 -93 t-66 -59t-87 -20q-65 0 -98.5 36.5t-33.5 98.5z" />
<glyph unicode="&#xcc;" horiz-adv-x="798" d="M-85 0l10 41q71 3 107 16t58 48.5t42 111.5l271 1016q17 65 17 98q0 31 -14 47t-42.5 22.5t-81.5 8.5l10 41q102 -6 322 -6q205 0 335 6l-10 -41q-75 -3 -111.5 -16t-58 -48t-41.5 -112l-270 -1016q-17 -66 -17 -99q0 -30 13.5 -46t42.5 -22.5t82 -8.5l-8 -41 q-118 6 -334 6q-214 0 -322 -6zM0 0zM310 1845q0 24 14 49q30 50 94 50q44 0 76 -23q28 -18 51 -43t60 -74q93 -121 176 -202l-17 -23q-111 51 -241 96q-105 35 -149 65q-29 18 -46.5 46t-17.5 59z" />
<glyph unicode="&#xcd;" horiz-adv-x="798" d="M-85 0l10 41q71 3 107 16t58 48.5t42 111.5l271 1016q17 65 17 98q0 31 -14 47t-42.5 22.5t-81.5 8.5l10 41q102 -6 322 -6q205 0 335 6l-10 -41q-75 -3 -111.5 -16t-58 -48t-41.5 -112l-270 -1016q-17 -66 -17 -99q0 -30 13.5 -46t42.5 -22.5t82 -8.5l-8 -41 q-118 6 -334 6q-214 0 -322 -6zM0 0zM541 1605q96 76 215 189q64 60 99 89.5t75 51.5q43 24 88 24q70 0 99 -56q10 -20 10 -41q0 -34 -25.5 -64.5t-66.5 -53.5q-35 -20 -77.5 -34t-118.5 -36q-178 -52 -284 -93z" />
<glyph unicode="&#xce;" horiz-adv-x="798" d="M-85 0l10 41q71 3 107 16t58 48.5t42 111.5l271 1016q17 65 17 98q0 31 -14 47t-42.5 22.5t-81.5 8.5l10 41q102 -6 322 -6q205 0 335 6l-10 -41q-75 -3 -111.5 -16t-58 -48t-41.5 -112l-270 -1016q-17 -66 -17 -99q0 -30 13.5 -46t42.5 -22.5t82 -8.5l-8 -41 q-118 6 -334 6q-214 0 -322 -6zM0 0zM229 1607q169 53 317 138.5t238 179.5h37q46 -114 110.5 -189t173.5 -129l-8 -28q-135 23 -224.5 51t-188.5 71q-214 -80 -445 -122z" />
<glyph unicode="&#xcf;" horiz-adv-x="798" d="M-85 0l10 41q71 3 107 16t58 48.5t42 111.5l271 1016q17 65 17 98q0 31 -14 47t-42.5 22.5t-81.5 8.5l10 41q102 -6 322 -6q205 0 335 6l-10 -41q-75 -3 -111.5 -16t-58 -48t-41.5 -112l-270 -1016q-17 -66 -17 -99q0 -30 13.5 -46t42.5 -22.5t82 -8.5l-8 -41 q-118 6 -334 6q-214 0 -322 -6zM0 0zM287 1704q0 53 24.5 92.5t65 60.5t87.5 21q64 0 98.5 -38t34.5 -99q0 -54 -25 -93t-66 -59t-87 -20q-65 0 -98.5 36.5t-33.5 98.5zM778 1704q0 53 24.5 92.5t65 60.5t87.5 21q64 0 98.5 -38t34.5 -99q0 -54 -25 -93t-66 -59t-87 -20 q-65 0 -98.5 36.5t-33.5 98.5z" />
<glyph unicode="&#xd0;" horiz-adv-x="1579" d="M-77 0l6 41q70 3 105.5 16t57.5 48.5t42 111.5l129 490h-107l12 52h109l125 474q15 58 15 88q0 43 -29.5 63.5t-104.5 24.5l6 41q142 -7 271 -7l65 1q216 6 306 6q299 0 458.5 -124t159.5 -365q0 -235 -115 -456.5t-343.5 -363t-551.5 -141.5q-20 0 -102 2q-114 4 -207 4 q-202 0 -307 -6zM437 100q0 -35 22.5 -49t79.5 -14q209 0 363 145t234.5 373t80.5 470q0 194 -79.5 291t-251.5 97q-53 0 -79.5 -13t-42 -47.5t-37.5 -115.5l-125 -478h386l-13 -52h-387l-129 -494q-22 -83 -22 -113z" />
<glyph unicode="&#xd1;" horiz-adv-x="1689" d="M-163 23q0 52 24 95t66.5 67.5t95.5 24.5q66 0 103 -34t37 -89q0 -68 -43.5 -119.5t-110.5 -71.5q10 -9 33 -9q104 0 174 111q79 123 162 443.5t182 836.5q4 24 4 46q0 34 -14.5 51.5t-47.5 24.5t-96 9l11 41q64 -6 182 -6q95 0 166 6l423 -975q171 740 308 938 q90 131 221 131q61 0 104.5 -23t66 -62t22.5 -88q0 -52 -24 -95t-66.5 -68t-95.5 -25q-67 0 -103.5 34t-36.5 89q0 67 43.5 119t110.5 71q-12 10 -34 10q-98 -1 -171 -109q-91 -136 -189 -477t-223 -930h-45l-508 1112q-87 -432 -166.5 -730t-152.5 -395 q-47 -60 -96.5 -94.5t-123.5 -34.5q-61 0 -104 23t-65.5 63t-22.5 89zM0 0zM713 1613q56 145 147.5 215t192.5 70q51 0 91 -11.5t68.5 -28t66.5 -43.5q47 -34 81.5 -50t81.5 -16q45 0 83 27.5t75 90.5l37 -10q-55 -144 -146.5 -214.5t-193.5 -70.5q-51 0 -91 11.5t-68.5 28 t-66.5 43.5q-46 34 -81 50.5t-82 16.5q-44 0 -82.5 -28t-75.5 -91z" />
<glyph unicode="&#xd2;" horiz-adv-x="1591" d="M85 463q0 232 118.5 469t330.5 392t479 155q173 0 298.5 -58t192 -169t66.5 -267q0 -231 -119.5 -467.5t-332.5 -391.5t-478 -155q-173 0 -298 58t-191 168.5t-66 265.5zM86 0zM437 436q0 -131 28 -228t78 -148.5t115 -51.5q140 0 269 147.5t209 381.5t80 477 q0 131 -28.5 228t-78.5 148.5t-115 51.5q-139 0 -268.5 -147.5t-209 -381.5t-79.5 -477zM704 1845q0 24 14 49q30 50 94 50q44 0 76 -23q28 -18 51 -43t60 -74q93 -121 176 -202l-17 -23q-111 51 -241 96q-105 35 -149 65q-29 18 -46.5 46t-17.5 59z" />
<glyph unicode="&#xd3;" horiz-adv-x="1591" d="M85 463q0 232 118.5 469t330.5 392t479 155q173 0 298.5 -58t192 -169t66.5 -267q0 -231 -119.5 -467.5t-332.5 -391.5t-478 -155q-173 0 -298 58t-191 168.5t-66 265.5zM86 0zM437 436q0 -131 28 -228t78 -148.5t115 -51.5q140 0 269 147.5t209 381.5t80 477 q0 131 -28.5 228t-78.5 148.5t-115 51.5q-139 0 -268.5 -147.5t-209 -381.5t-79.5 -477zM935 1605q96 76 215 189q64 60 99 89.5t75 51.5q43 24 88 24q70 0 99 -56q10 -20 10 -41q0 -34 -25.5 -64.5t-66.5 -53.5q-35 -20 -77.5 -34t-118.5 -36q-178 -52 -284 -93z" />
<glyph unicode="&#xd4;" horiz-adv-x="1591" d="M85 463q0 232 118.5 469t330.5 392t479 155q173 0 298.5 -58t192 -169t66.5 -267q0 -231 -119.5 -467.5t-332.5 -391.5t-478 -155q-173 0 -298 58t-191 168.5t-66 265.5zM86 0zM437 436q0 -131 28 -228t78 -148.5t115 -51.5q140 0 269 147.5t209 381.5t80 477 q0 131 -28.5 228t-78.5 148.5t-115 51.5q-139 0 -268.5 -147.5t-209 -381.5t-79.5 -477zM623 1607q169 53 317 138.5t238 179.5h37q46 -114 110.5 -189t173.5 -129l-8 -28q-135 23 -224.5 51t-188.5 71q-214 -80 -445 -122z" />
<glyph unicode="&#xd5;" horiz-adv-x="1591" d="M85 463q0 232 118.5 469t330.5 392t479 155q173 0 298.5 -58t192 -169t66.5 -267q0 -231 -119.5 -467.5t-332.5 -391.5t-478 -155q-173 0 -298 58t-191 168.5t-66 265.5zM86 0zM437 436q0 -131 28 -228t78 -148.5t115 -51.5q140 0 269 147.5t209 381.5t80 477 q0 131 -28.5 228t-78.5 148.5t-115 51.5q-139 0 -268.5 -147.5t-209 -381.5t-79.5 -477zM659 1613q56 145 147.5 215t192.5 70q51 0 91 -11.5t68.5 -28t66.5 -43.5q47 -34 81.5 -50t81.5 -16q45 0 83 27.5t75 90.5l37 -10q-55 -144 -146.5 -214.5t-193.5 -70.5 q-51 0 -91 11.5t-68.5 28t-66.5 43.5q-46 34 -81 50.5t-82 16.5q-44 0 -82.5 -28t-75.5 -91z" />
<glyph unicode="&#xd6;" horiz-adv-x="1591" d="M85 463q0 232 118.5 469t330.5 392t479 155q173 0 298.5 -58t192 -169t66.5 -267q0 -231 -119.5 -467.5t-332.5 -391.5t-478 -155q-173 0 -298 58t-191 168.5t-66 265.5zM86 0zM437 436q0 -131 28 -228t78 -148.5t115 -51.5q140 0 269 147.5t209 381.5t80 477 q0 131 -28.5 228t-78.5 148.5t-115 51.5q-139 0 -268.5 -147.5t-209 -381.5t-79.5 -477zM681 1704q0 53 24.5 92.5t65 60.5t87.5 21q64 0 98.5 -38t34.5 -99q0 -54 -25 -93t-66 -59t-87 -20q-65 0 -98.5 36.5t-33.5 98.5zM1172 1704q0 53 24.5 92.5t65 60.5t87.5 21 q64 0 98.5 -38t34.5 -99q0 -54 -25 -93t-66 -59t-87 -20q-65 0 -98.5 36.5t-33.5 98.5z" />
<glyph unicode="&#xd7;" horiz-adv-x="1016" d="M37 373l457 354l-256 358l53 37l252 -358l465 362l33 -45l-465 -360l256 -354l-51 -37l-254 354l-459 -356z" />
<glyph unicode="&#xd8;" horiz-adv-x="1591" d="M-5 -121l224 233q-133 130 -133 351q0 232 118.5 469t330.5 392t479 155q248 0 393 -116l210 220l30 -27l-208 -221q132 -129 132 -350q0 -231 -119.5 -467.5t-332.5 -391.5t-478 -155q-243 0 -387 112l-225 -233zM438 436q0 -71 9 -133l758 866q-22 130 -77.5 201.5 t-132.5 71.5q-139 0 -268.5 -147.5t-209 -381.5t-79.5 -477zM456 247q25 -114 78 -176.5t125 -62.5q140 0 269 147.5t209 381.5t80 477q0 47 -5 100z" />
<glyph unicode="&#xd9;" horiz-adv-x="1421" d="M154 325q0 104 43 265l170 643q17 65 17 98q0 31 -14 47t-42.5 22.5t-81.5 8.5l12 41q105 -6 338 -6q192 0 318 6l-13 -41q-75 -3 -111.5 -16t-58 -48t-41.5 -112l-180 -678q-49 -182 -49 -297q0 -108 45 -161.5t139 -53.5q215 0 339 139t190 391l142 541q31 118 31 174 q0 60 -34.5 86t-120.5 35l12 41q75 -6 219 -6q113 0 180 6l-11 -41q-69 -9 -108 -34.5t-64.5 -78.5t-52.5 -157l-140 -543q-73 -283 -201 -434q-75 -88 -185 -139.5t-235 -51.5q-148 0 -248.5 42t-150.5 119q-53 77 -53 193zM155 0zM639 1845q0 24 14 49q30 50 94 50 q44 0 76 -23q28 -18 51 -43t60 -74q93 -121 176 -202l-17 -23q-111 51 -241 96q-105 35 -149 65q-29 18 -46.5 46t-17.5 59z" />
<glyph unicode="&#xda;" horiz-adv-x="1421" d="M154 325q0 104 43 265l170 643q17 65 17 98q0 31 -14 47t-42.5 22.5t-81.5 8.5l12 41q105 -6 338 -6q192 0 318 6l-13 -41q-75 -3 -111.5 -16t-58 -48t-41.5 -112l-180 -678q-49 -182 -49 -297q0 -108 45 -161.5t139 -53.5q215 0 339 139t190 391l142 541q31 118 31 174 q0 60 -34.5 86t-120.5 35l12 41q75 -6 219 -6q113 0 180 6l-11 -41q-69 -9 -108 -34.5t-64.5 -78.5t-52.5 -157l-140 -543q-73 -283 -201 -434q-75 -88 -185 -139.5t-235 -51.5q-148 0 -248.5 42t-150.5 119q-53 77 -53 193zM155 0zM870 1605q96 76 215 189q64 60 99 89.5 t75 51.5q43 24 88 24q70 0 99 -56q10 -20 10 -41q0 -34 -25.5 -64.5t-66.5 -53.5q-35 -20 -77.5 -34t-118.5 -36q-178 -52 -284 -93z" />
<glyph unicode="&#xdb;" horiz-adv-x="1421" d="M154 325q0 104 43 265l170 643q17 65 17 98q0 31 -14 47t-42.5 22.5t-81.5 8.5l12 41q105 -6 338 -6q192 0 318 6l-13 -41q-75 -3 -111.5 -16t-58 -48t-41.5 -112l-180 -678q-49 -182 -49 -297q0 -108 45 -161.5t139 -53.5q215 0 339 139t190 391l142 541q31 118 31 174 q0 60 -34.5 86t-120.5 35l12 41q75 -6 219 -6q113 0 180 6l-11 -41q-69 -9 -108 -34.5t-64.5 -78.5t-52.5 -157l-140 -543q-73 -283 -201 -434q-75 -88 -185 -139.5t-235 -51.5q-148 0 -248.5 42t-150.5 119q-53 77 -53 193zM155 0zM558 1607q169 53 317 138.5t238 179.5h37 q46 -114 110.5 -189t173.5 -129l-8 -28q-135 23 -224.5 51t-188.5 71q-214 -80 -445 -122z" />
<glyph unicode="&#xdc;" horiz-adv-x="1421" d="M154 325q0 104 43 265l170 643q17 65 17 98q0 31 -14 47t-42.5 22.5t-81.5 8.5l12 41q105 -6 338 -6q192 0 318 6l-13 -41q-75 -3 -111.5 -16t-58 -48t-41.5 -112l-180 -678q-49 -182 -49 -297q0 -108 45 -161.5t139 -53.5q215 0 339 139t190 391l142 541q31 118 31 174 q0 60 -34.5 86t-120.5 35l12 41q75 -6 219 -6q113 0 180 6l-11 -41q-69 -9 -108 -34.5t-64.5 -78.5t-52.5 -157l-140 -543q-73 -283 -201 -434q-75 -88 -185 -139.5t-235 -51.5q-148 0 -248.5 42t-150.5 119q-53 77 -53 193zM155 0zM616 1704q0 53 24.5 92.5t65 60.5 t87.5 21q64 0 98.5 -38t34.5 -99q0 -54 -25 -93t-66 -59t-87 -20q-65 0 -98.5 36.5t-33.5 98.5zM1107 1704q0 53 24.5 92.5t65 60.5t87.5 21q64 0 98.5 -38t34.5 -99q0 -54 -25 -93t-66 -59t-87 -20q-65 0 -98.5 36.5t-33.5 98.5z" />
<glyph unicode="&#xdd;" horiz-adv-x="1502" d="M168 1102l53 158q38 116 110.5 167.5t177.5 51.5q134 0 210.5 -83t114 -235t66.5 -413q68 191 154 345t181 259q118 127 243 127q59 0 102 -24t65.5 -64.5t22.5 -89.5q0 -51 -24 -93t-66.5 -66.5t-95.5 -24.5q-67 0 -104 34t-37 91q0 66 43.5 117.5t110.5 71.5 q-12 10 -33 10q-60 -1 -124 -48q-58 -42 -131 -138.5t-150.5 -246.5t-142.5 -341l-113 -450q-13 -55 -13 -83q0 -37 16.5 -56t49.5 -26.5t92 -10.5l-10 -41q-114 6 -352 6q-222 0 -330 -6l10 41q75 3 112 16t59 48.5t40 111.5l112 441q-31 279 -89 474.5t-146 195.5 q-35 0 -57.5 -25.5t-37.5 -70.5l-44 -130h-45zM169 0zM854 1605q96 76 215 189q64 60 99 89.5t75 51.5q43 24 88 24q70 0 99 -56q10 -20 10 -41q0 -34 -25.5 -64.5t-66.5 -53.5q-35 -20 -77.5 -34t-118.5 -36q-178 -52 -284 -93z" />
<glyph unicode="&#xde;" horiz-adv-x="1353" d="M-85 0l10 41q71 3 107 16t58 48.5t42 111.5l271 1016q17 65 17 98q0 31 -14 47t-42.5 22.5t-81.5 8.5l10 41q102 -6 322 -6q204 0 335 6l-10 -41q-75 -3 -111.5 -16t-58 -48t-41.5 -112l-22 -82q108 2 163 2q160 0 267.5 -38t160.5 -107.5t53 -163.5q0 -160 -107 -286.5 t-299 -198.5t-440 -72h-27l-19 -70q-17 -66 -17 -99q0 -30 13.5 -46t42.5 -22.5t82 -8.5l-8 -41q-119 6 -334 6q-214 0 -322 -6zM487 328h38q163 0 271.5 75.5t160 200t51.5 273.5q0 111 -56.5 174t-166.5 63q-43 0 -89 -2z" />
<glyph unicode="&#xdf;" horiz-adv-x="1244" d="M-121 -385l377 1433q51 194 123.5 314t187 180t287.5 60q132 0 217.5 -28.5t124.5 -74.5t39 -101q0 -54 -28.5 -99t-72.5 -82.5t-128 -98.5q-74 -52 -139 -105q-62 -51 -81.5 -83t-19.5 -67q0 -41 20 -79t49.5 -70.5t79.5 -79.5l40 -39q61 -61 95 -101t55 -87t21 -104 q0 -105 -59 -180t-157 -113.5t-214 -38.5q-85 0 -149.5 27t-100 77t-35.5 115q0 64 33 108t86 44q57 0 88.5 -52t31.5 -122q0 -40 -12.5 -80t-34.5 -67q27 -9 51 -9q43 0 78 25t55 70.5t20 104.5q0 63 -18 124t-55 133l-15 31q-37 77 -57.5 134.5t-20.5 113.5q0 47 15.5 83 t40 64t70.5 71q89 89 66 65q65 68 95.5 158t30.5 186q0 100 -40 148t-103 48q-74 0 -124 -73.5t-92 -233.5l-426 -1620q-171 -3 -295 -29z" />
<glyph unicode="&#xe0;" horiz-adv-x="1144" d="M-1 224q0 182 97.5 385.5t246.5 340.5t292 137q55 0 89 -33t40 -99l29 103q168 3 297 29l-268 -912q-10 -37 -10 -59q0 -44 37 -44q71 0 128 161l36 100h39l-51 -150q-41 -116 -113 -164t-157 -48q-107 0 -152 65q-27 40 -27 103q0 49 18 123q-68 -154 -153.5 -222.5 t-188.5 -68.5q-114 0 -171.5 66.5t-57.5 186.5zM0 0zM302 209q0 -69 13.5 -98.5t43.5 -29.5q44 0 98.5 62.5t108.5 181t96 279.5l-10 -51l89 320q2 22 2 33q0 50 -18 78t-51 28q-70 0 -158.5 -125.5t-151 -314t-62.5 -363.5zM435 1641q0 60 48 88q24 14 55 14q32 0 62 -17.5 t49 -48.5q20 -32 32 -69t26 -98q22 -86 37.5 -140t44.5 -130l-25 -13q-85 105 -194 212q-48 48 -71.5 74t-41.5 56q-22 35 -22 72z" />
<glyph unicode="&#xe1;" horiz-adv-x="1144" d="M-1 224q0 182 97.5 385.5t246.5 340.5t292 137q55 0 89 -33t40 -99l29 103q168 3 297 29l-268 -912q-10 -37 -10 -59q0 -44 37 -44q71 0 128 161l36 100h39l-51 -150q-41 -116 -113 -164t-157 -48q-107 0 -152 65q-27 40 -27 103q0 49 18 123q-68 -154 -153.5 -222.5 t-188.5 -68.5q-114 0 -171.5 66.5t-57.5 186.5zM0 0zM302 209q0 -69 13.5 -98.5t43.5 -29.5q44 0 98.5 62.5t108.5 181t96 279.5l-10 -51l89 320q2 22 2 33q0 50 -18 78t-51 28q-70 0 -158.5 -125.5t-151 -314t-62.5 -363.5zM643 1246q56 79 154 242q43 74 68.5 112.5 t57.5 70.5q23 25 53 39t59 14q43 0 75 -29q27 -27 27 -63q0 -55 -59 -112q-29 -29 -64.5 -54.5t-106.5 -70.5q-144 -91 -243 -168z" />
<glyph unicode="&#xe2;" horiz-adv-x="1144" d="M-1 224q0 182 97.5 385.5t246.5 340.5t292 137q55 0 89 -33t40 -99l29 103q168 3 297 29l-268 -912q-10 -37 -10 -59q0 -44 37 -44q71 0 128 161l36 100h39l-51 -150q-41 -116 -113 -164t-157 -48q-107 0 -152 65q-27 40 -27 103q0 49 18 123q-68 -154 -153.5 -222.5 t-188.5 -68.5q-114 0 -171.5 66.5t-57.5 186.5zM0 0zM302 209q0 -69 13.5 -98.5t43.5 -29.5q44 0 98.5 62.5t108.5 181t96 279.5l-10 -51l89 320q2 22 2 33q0 50 -18 78t-51 28q-70 0 -158.5 -125.5t-151 -314t-62.5 -363.5zM357 1278q148 64 277.5 172t211.5 229h37 q28 -144 84 -237.5t160 -163.5l-8 -29q-127 28 -214 64t-167 88q-175 -96 -371 -152z" />
<glyph unicode="&#xe3;" horiz-adv-x="1144" d="M-1 224q0 182 97.5 385.5t246.5 340.5t292 137q55 0 89 -33t40 -99l29 103q168 3 297 29l-268 -912q-10 -37 -10 -59q0 -44 37 -44q71 0 128 161l36 100h39l-51 -150q-41 -116 -113 -164t-157 -48q-107 0 -152 65q-27 40 -27 103q0 49 18 123q-68 -154 -153.5 -222.5 t-188.5 -68.5q-114 0 -171.5 66.5t-57.5 186.5zM0 0zM302 209q0 -69 13.5 -98.5t43.5 -29.5q44 0 98.5 62.5t108.5 181t96 279.5l-10 -51l89 320q2 22 2 33q0 50 -18 78t-51 28q-70 0 -158.5 -125.5t-151 -314t-62.5 -363.5zM395 1325q52 144 136.5 214.5t178.5 70.5 q59 0 98 -21.5t84 -62.5q37 -33 64.5 -49.5t64.5 -16.5q41 0 76.5 28t69.5 91l37 -10q-52 -144 -137 -214.5t-178 -70.5q-59 0 -98 21.5t-84 62.5q-37 33 -64.5 49.5t-64.5 16.5q-41 0 -76.5 -28t-69.5 -91z" />
<glyph unicode="&#xe4;" horiz-adv-x="1144" d="M-1 224q0 182 97.5 385.5t246.5 340.5t292 137q55 0 89 -33t40 -99l29 103q168 3 297 29l-268 -912q-10 -37 -10 -59q0 -44 37 -44q71 0 128 161l36 100h39l-51 -150q-41 -116 -113 -164t-157 -48q-107 0 -152 65q-27 40 -27 103q0 49 18 123q-68 -154 -153.5 -222.5 t-188.5 -68.5q-114 0 -171.5 66.5t-57.5 186.5zM0 0zM302 209q0 -69 13.5 -98.5t43.5 -29.5q44 0 98.5 62.5t108.5 181t96 279.5l-10 -51l89 320q2 22 2 33q0 50 -18 78t-51 28q-70 0 -158.5 -125.5t-151 -314t-62.5 -363.5zM420 1384q0 53 24.5 92.5t65 60t87.5 20.5 q64 0 98.5 -37.5t34.5 -99.5q0 -53 -25 -92t-66 -59.5t-87 -20.5q-65 0 -98.5 37t-33.5 99zM886 1384q0 53 24.5 92.5t65 60t87.5 20.5q64 0 98.5 -37.5t34.5 -99.5q0 -53 -25 -92t-66 -59.5t-87 -20.5q-65 0 -98.5 37t-33.5 99z" />
<glyph unicode="&#xe5;" horiz-adv-x="1144" d="M-1 224q0 182 97.5 385.5t246.5 340.5t292 137q55 0 89 -33t40 -99l29 103q168 3 297 29l-268 -912q-10 -37 -10 -59q0 -44 37 -44q71 0 128 161l36 100h39l-51 -150q-41 -116 -113 -164t-157 -48q-107 0 -152 65q-27 40 -27 103q0 49 18 123q-68 -154 -153.5 -222.5 t-188.5 -68.5q-114 0 -171.5 66.5t-57.5 186.5zM0 0zM302 209q0 -69 13.5 -98.5t43.5 -29.5q44 0 98.5 62.5t108.5 181t96 279.5l-10 -51l89 320q2 22 2 33q0 50 -18 78t-51 28q-70 0 -158.5 -125.5t-151 -314t-62.5 -363.5zM594 1409q0 62 33 113t90 80.5t125 29.5 q57 0 102.5 -21.5t72 -61.5t26.5 -92q0 -60 -35.5 -111.5t-94.5 -82t-126 -30.5q-55 0 -99 21.5t-69 61t-25 93.5zM648 1410q0 -42 21 -72.5t55.5 -46t72.5 -15.5q49 0 93.5 24t71.5 65.5t27 90.5q0 43 -22.5 73t-58 45t-73.5 15q-49 0 -92 -25t-69 -66.5t-26 -87.5z" />
<glyph unicode="&#xe6;" horiz-adv-x="1504" d="M-12 216q0 181 122.5 378.5t311.5 329t374 131.5q105 0 148 -71q156 103 328 103q103 0 166.5 -43t63.5 -127q0 -115 -95.5 -211.5t-239 -164.5t-299.5 -109q-12 -70 -12 -140q0 -108 40.5 -153t117.5 -45q63 0 141.5 40.5t153.5 127.5l36 -16q-46 -73 -116.5 -135.5 t-162.5 -101t-196 -38.5q-112 0 -193.5 48t-111.5 138q-66 -91 -154.5 -138.5t-188.5 -47.5q-117 0 -175.5 64t-58.5 181zM291 213q0 -64 26.5 -98t69.5 -34q91 0 169 110q-7 29 -7 69q0 122 45.5 254.5t128.5 250.5t191 198q-29 39 -82 39q-110 0 -238 -115t-215.5 -298 t-87.5 -376zM874 469q156 64 224 123q85 73 131.5 173t46.5 216q0 68 -49 68q-59 0 -131 -84t-133 -218.5t-89 -277.5z" />
<glyph unicode="&#xe7;" horiz-adv-x="949" d="M-4 -345l13 32q66 -23 124 -23q54 0 107 21t53 73q0 22 -15 34.5t-42 12.5q-35 0 -64 -14l123 182q-129 13 -203.5 92t-74.5 221q0 176 88 363.5t248 312.5t363 125q73 0 129.5 -25.5t87.5 -70.5t31 -101q0 -55 -27 -107.5t-73.5 -85.5t-101.5 -33q-51 0 -84 32t-33 86 t25.5 100.5t68.5 78.5t92 45q-33 41 -97 41q-101 0 -196.5 -110t-155 -286.5t-59.5 -364.5q0 -104 41 -154t115 -50q148 0 270 180l41 -16q-72 -116 -183 -194t-254 -81l-71 -112q62 20 109 20q55 0 89.5 -22t34.5 -63q0 -61 -49 -101t-126 -59t-160 -19q-58 0 -107.5 12.5 t-76.5 27.5z" />
<glyph unicode="&#xe8;" horiz-adv-x="961" d="M6 0zM6 260q0 182 98.5 376t268.5 322.5t373 128.5q95 0 154 -41.5t59 -120.5q0 -117 -95.5 -214.5t-239 -166.5t-299.5 -111q-12 -72 -12 -141q0 -108 40.5 -153t117.5 -45q63 0 144 40.5t155 127.5l32 -16q-46 -73 -116.5 -135.5t-162.5 -101t-196 -38.5q-92 0 -165 33 t-114.5 98.5t-41.5 157.5zM332 471q145 64 226 137q82 75 129 170t47 203q0 68 -33 68q-61 0 -136 -83.5t-139.5 -218t-93.5 -276.5zM389 1641q0 60 48 88q24 14 55 14q32 0 62 -17.5t49 -48.5q20 -32 32 -69t26 -98q22 -86 37.5 -140t44.5 -130l-25 -13q-85 105 -194 212 q-48 48 -71.5 74t-41.5 56q-22 35 -22 72z" />
<glyph unicode="&#xe9;" horiz-adv-x="961" d="M6 0zM6 260q0 182 98.5 376t268.5 322.5t373 128.5q95 0 154 -41.5t59 -120.5q0 -117 -95.5 -214.5t-239 -166.5t-299.5 -111q-12 -72 -12 -141q0 -108 40.5 -153t117.5 -45q63 0 144 40.5t155 127.5l32 -16q-46 -73 -116.5 -135.5t-162.5 -101t-196 -38.5q-92 0 -165 33 t-114.5 98.5t-41.5 157.5zM332 471q145 64 226 137q82 75 129 170t47 203q0 68 -33 68q-61 0 -136 -83.5t-139.5 -218t-93.5 -276.5zM597 1246q56 79 154 242q43 74 68.5 112.5t57.5 70.5q23 25 53 39t59 14q43 0 75 -29q27 -27 27 -63q0 -55 -59 -112q-29 -29 -64.5 -54.5 t-106.5 -70.5q-144 -91 -243 -168z" />
<glyph unicode="&#xea;" horiz-adv-x="961" d="M6 0zM6 260q0 182 98.5 376t268.5 322.5t373 128.5q95 0 154 -41.5t59 -120.5q0 -117 -95.5 -214.5t-239 -166.5t-299.5 -111q-12 -72 -12 -141q0 -108 40.5 -153t117.5 -45q63 0 144 40.5t155 127.5l32 -16q-46 -73 -116.5 -135.5t-162.5 -101t-196 -38.5q-92 0 -165 33 t-114.5 98.5t-41.5 157.5zM311 1278q148 64 277.5 172t211.5 229h37q28 -144 84 -237.5t160 -163.5l-8 -29q-127 28 -214 64t-167 88q-175 -96 -371 -152zM332 471q145 64 226 137q82 75 129 170t47 203q0 68 -33 68q-61 0 -136 -83.5t-139.5 -218t-93.5 -276.5z" />
<glyph unicode="&#xeb;" horiz-adv-x="961" d="M6 0zM6 260q0 182 98.5 376t268.5 322.5t373 128.5q95 0 154 -41.5t59 -120.5q0 -117 -95.5 -214.5t-239 -166.5t-299.5 -111q-12 -72 -12 -141q0 -108 40.5 -153t117.5 -45q63 0 144 40.5t155 127.5l32 -16q-46 -73 -116.5 -135.5t-162.5 -101t-196 -38.5q-92 0 -165 33 t-114.5 98.5t-41.5 157.5zM332 471q145 64 226 137q82 75 129 170t47 203q0 68 -33 68q-61 0 -136 -83.5t-139.5 -218t-93.5 -276.5zM374 1384q0 53 24.5 92.5t65 60t87.5 20.5q64 0 98.5 -37.5t34.5 -99.5q0 -53 -25 -92t-66 -59.5t-87 -20.5q-65 0 -98.5 37t-33.5 99z M840 1384q0 53 24.5 92.5t65 60t87.5 20.5q64 0 98.5 -37.5t34.5 -99.5q0 -53 -25 -92t-66 -59.5t-87 -20.5q-65 0 -98.5 37t-33.5 99z" />
<glyph unicode="&#xec;" horiz-adv-x="659" d="M50 721l55 156q76 210 285 210q95 0 138 -46t43 -120q0 -54 -22 -120l-215 -627q-13 -36 -13 -60q0 -42 40 -42q69 0 130 161l37 99h39l-52 -150q-41 -115 -114.5 -163t-162.5 -48q-186 0 -186 168q0 69 31 158l200 588q13 36 13 61q0 41 -35 41q-38 0 -69 -37.5 t-64 -123.5l-39 -105h-39zM51 0zM132 1641q0 60 48 88q24 14 55 14q32 0 62 -17.5t49 -48.5q20 -32 32 -69t26 -98q22 -86 37.5 -140t44.5 -130l-25 -13q-85 105 -194 212q-48 48 -71.5 74t-41.5 56q-22 35 -22 72z" />
<glyph unicode="&#xed;" horiz-adv-x="659" d="M50 721l55 156q76 210 285 210q95 0 138 -46t43 -120q0 -54 -22 -120l-215 -627q-13 -36 -13 -60q0 -42 40 -42q69 0 130 161l37 99h39l-52 -150q-41 -115 -114.5 -163t-162.5 -48q-186 0 -186 168q0 69 31 158l200 588q13 36 13 61q0 41 -35 41q-38 0 -69 -37.5 t-64 -123.5l-39 -105h-39zM51 0zM340 1246q56 79 154 242q43 74 68.5 112.5t57.5 70.5q23 25 53 39t59 14q43 0 75 -29q27 -27 27 -63q0 -55 -59 -112q-29 -29 -64.5 -54.5t-106.5 -70.5q-144 -91 -243 -168z" />
<glyph unicode="&#xee;" horiz-adv-x="659" d="M50 721l55 156q76 210 285 210q95 0 138 -46t43 -120q0 -54 -22 -120l-215 -627q-13 -36 -13 -60q0 -42 40 -42q69 0 130 161l37 99h39l-52 -150q-41 -115 -114.5 -163t-162.5 -48q-186 0 -186 168q0 69 31 158l200 588q13 36 13 61q0 41 -35 41q-38 0 -69 -37.5 t-64 -123.5l-39 -105h-39zM51 0zM54 1278q148 64 277.5 172t211.5 229h37q28 -144 84 -237.5t160 -163.5l-8 -29q-127 28 -214 64t-167 88q-175 -96 -371 -152z" />
<glyph unicode="&#xef;" horiz-adv-x="659" d="M50 721l55 156q76 210 285 210q95 0 138 -46t43 -120q0 -54 -22 -120l-215 -627q-13 -36 -13 -60q0 -42 40 -42q69 0 130 161l37 99h39l-52 -150q-41 -115 -114.5 -163t-162.5 -48q-186 0 -186 168q0 69 31 158l200 588q13 36 13 61q0 41 -35 41q-38 0 -69 -37.5 t-64 -123.5l-39 -105h-39zM51 0zM117 1384q0 53 24.5 92.5t65 60t87.5 20.5q64 0 98.5 -37.5t34.5 -99.5q0 -53 -25 -92t-66 -59.5t-87 -20.5q-65 0 -98.5 37t-33.5 99zM583 1384q0 53 24.5 92.5t65 60t87.5 20.5q64 0 98.5 -37.5t34.5 -99.5q0 -53 -25 -92t-66 -59.5 t-87 -20.5q-65 0 -98.5 37t-33.5 99z" />
<glyph unicode="&#xf0;" horiz-adv-x="1082" d="M24 310q0 163 74.5 344t212.5 304t317 123q44 0 75 -11q-25 144 -90 256l-350 -155l-12 37l341 151q-83 123 -224 208l24 35q189 -63 334 -182l309 136l13 -36l-291 -128q125 -114 193.5 -264t68.5 -328q0 -197 -78.5 -389t-229 -316t-356.5 -124q-152 0 -241.5 82.5 t-89.5 256.5zM323 159q0 -57 7 -89t22 -45t41 -13q84 0 160 134t121.5 334t45.5 382q0 86 -11 168q-27 10 -63 10q-93 0 -167 -140t-115 -347t-41 -394z" />
<glyph unicode="&#xf1;" horiz-adv-x="1236" d="M31 0l249 885q13 46 13 65q0 37 -37 37t-67 -35.5t-63 -125.5l-39 -105h-39l55 156q39 111 105 160.5t160 49.5q177 0 177 -167q0 -49 -18 -119l-66 -254q85 210 162.5 328t156 165t175.5 47q185 0 185 -164q0 -64 -27 -145l-201 -604q-12 -37 -12 -59q0 -43 40 -43 q70 0 128 161l37 99h38l-51 -150q-72 -211 -275 -211q-116 0 -162 68q-26 38 -26 96q0 67 32 162l184 553q18 56 18 88q0 47 -39 47q-63 0 -152.5 -129.5t-179 -340.5t-153.5 -442l-19 -73h-289zM32 0zM387 1325q52 144 136.5 214.5t178.5 70.5q59 0 98 -21.5t84 -62.5 q37 -33 64.5 -49.5t64.5 -16.5q41 0 76.5 28t69.5 91l37 -10q-52 -144 -137 -214.5t-178 -70.5q-59 0 -98 21.5t-84 62.5q-37 33 -64.5 49.5t-64.5 16.5q-41 0 -76.5 -28t-69.5 -91z" />
<glyph unicode="&#xf2;" horiz-adv-x="1084" d="M24 309q0 169 76.5 350.5t227 304.5t360.5 123q159 0 245 -86.5t86 -250.5q0 -169 -76.5 -350.5t-227 -305t-360.5 -123.5q-159 0 -245 86.5t-86 251.5zM25 0zM298 152q0 -74 17 -107t53 -33q75 0 164 141.5t150.5 351t61.5 399.5q0 80 -16.5 111.5t-50.5 31.5 q-77 0 -166.5 -145t-151 -356.5t-61.5 -393.5zM414 1641q0 60 48 88q24 14 55 14q32 0 62 -17.5t49 -48.5q20 -32 32 -69t26 -98q22 -86 37.5 -140t44.5 -130l-25 -13q-85 105 -194 212q-48 48 -71.5 74t-41.5 56q-22 35 -22 72z" />
<glyph unicode="&#xf3;" horiz-adv-x="1084" d="M24 309q0 169 76.5 350.5t227 304.5t360.5 123q159 0 245 -86.5t86 -250.5q0 -169 -76.5 -350.5t-227 -305t-360.5 -123.5q-159 0 -245 86.5t-86 251.5zM25 0zM298 152q0 -74 17 -107t53 -33q75 0 164 141.5t150.5 351t61.5 399.5q0 80 -16.5 111.5t-50.5 31.5 q-77 0 -166.5 -145t-151 -356.5t-61.5 -393.5zM622 1246q56 79 154 242q43 74 68.5 112.5t57.5 70.5q23 25 53 39t59 14q43 0 75 -29q27 -27 27 -63q0 -55 -59 -112q-29 -29 -64.5 -54.5t-106.5 -70.5q-144 -91 -243 -168z" />
<glyph unicode="&#xf4;" horiz-adv-x="1084" d="M24 309q0 169 76.5 350.5t227 304.5t360.5 123q159 0 245 -86.5t86 -250.5q0 -169 -76.5 -350.5t-227 -305t-360.5 -123.5q-159 0 -245 86.5t-86 251.5zM25 0zM298 152q0 -74 17 -107t53 -33q75 0 164 141.5t150.5 351t61.5 399.5q0 80 -16.5 111.5t-50.5 31.5 q-77 0 -166.5 -145t-151 -356.5t-61.5 -393.5zM336 1278q148 64 277.5 172t211.5 229h37q28 -144 84 -237.5t160 -163.5l-8 -29q-127 28 -214 64t-167 88q-175 -96 -371 -152z" />
<glyph unicode="&#xf5;" horiz-adv-x="1084" d="M24 309q0 169 76.5 350.5t227 304.5t360.5 123q159 0 245 -86.5t86 -250.5q0 -169 -76.5 -350.5t-227 -305t-360.5 -123.5q-159 0 -245 86.5t-86 251.5zM25 0zM298 152q0 -74 17 -107t53 -33q75 0 164 141.5t150.5 351t61.5 399.5q0 80 -16.5 111.5t-50.5 31.5 q-77 0 -166.5 -145t-151 -356.5t-61.5 -393.5zM374 1325q52 144 136.5 214.5t178.5 70.5q59 0 98 -21.5t84 -62.5q37 -33 64.5 -49.5t64.5 -16.5q41 0 76.5 28t69.5 91l37 -10q-52 -144 -137 -214.5t-178 -70.5q-59 0 -98 21.5t-84 62.5q-37 33 -64.5 49.5t-64.5 16.5 q-41 0 -76.5 -28t-69.5 -91z" />
<glyph unicode="&#xf6;" horiz-adv-x="1084" d="M24 309q0 169 76.5 350.5t227 304.5t360.5 123q159 0 245 -86.5t86 -250.5q0 -169 -76.5 -350.5t-227 -305t-360.5 -123.5q-159 0 -245 86.5t-86 251.5zM25 0zM298 152q0 -74 17 -107t53 -33q75 0 164 141.5t150.5 351t61.5 399.5q0 80 -16.5 111.5t-50.5 31.5 q-77 0 -166.5 -145t-151 -356.5t-61.5 -393.5zM399 1384q0 53 24.5 92.5t65 60t87.5 20.5q64 0 98.5 -37.5t34.5 -99.5q0 -53 -25 -92t-66 -59.5t-87 -20.5q-65 0 -98.5 37t-33.5 99zM865 1384q0 53 24.5 92.5t65 60t87.5 20.5q64 0 98.5 -37.5t34.5 -99.5q0 -53 -25 -92 t-66 -59.5t-87 -20.5q-65 0 -98.5 37t-33.5 99z" />
<glyph unicode="&#xf7;" horiz-adv-x="1303" d="M159 696l18 62h1026l-18 -62h-1026zM512 400q0 14 5 32q13 46 56 79.5t89 33.5q39 0 63 -23t24 -59q0 -13 -5 -31q-14 -47 -57 -81t-90 -34q-38 0 -61.5 23.5t-23.5 59.5zM682 989q0 15 5 33q14 46 56.5 79.5t88.5 33.5q39 0 63 -23t24 -59q0 -13 -5 -31 q-13 -48 -56 -80.5t-91 -32.5q-38 0 -61.5 22.5t-23.5 57.5z" />
<glyph unicode="&#xf8;" horiz-adv-x="1083" d="M24 309q0 169 76.5 350.5t227 304.5t360.5 123q94 0 163 -30l120 170l32 -19l-119 -169q135 -82 135 -289q0 -169 -76.5 -350.5t-227 -305t-360.5 -123.5q-94 0 -165 31l-125 -172l-32 21l122 170q-131 83 -131 288zM298 128q3 -61 20 -88.5t50 -27.5q72 0 157.5 131.5 t147.5 330t70 385.5zM299 202l445 726q-3 66 -19.5 92.5t-47.5 26.5q-73 0 -159 -133.5t-148 -332.5t-71 -379z" />
<glyph unicode="&#xf9;" horiz-adv-x="1223" d="M49 727l51 150q72 210 275 210q185 0 185 -169q0 -67 -29 -157l-184 -552q-18 -55 -18 -87q0 -48 39 -48q61 0 147.5 125t174 332t151.5 440l23 88q180 3 297 28l-257 -913q-13 -45 -13 -67q0 -35 36 -35q37 0 68.5 37t62.5 124l39 105h39l-55 -156q-40 -113 -112.5 -162 t-162.5 -49q-111 0 -151 70q-19 35 -19 85t21 132l55 211q-80 -193 -154.5 -301.5t-150.5 -152.5t-169 -44q-91 0 -137.5 43t-46.5 124q0 62 27 143l199 604q12 36 12 58q0 44 -40 44q-70 0 -128 -161l-37 -99h-38zM50 0zM397 1641q0 60 48 88q24 14 55 14q32 0 62 -17.5 t49 -48.5q20 -32 32 -69t26 -98q22 -86 37.5 -140t44.5 -130l-25 -13q-85 105 -194 212q-48 48 -71.5 74t-41.5 56q-22 35 -22 72z" />
<glyph unicode="&#xfa;" horiz-adv-x="1223" d="M49 727l51 150q72 210 275 210q185 0 185 -169q0 -67 -29 -157l-184 -552q-18 -55 -18 -87q0 -48 39 -48q61 0 147.5 125t174 332t151.5 440l23 88q180 3 297 28l-257 -913q-13 -45 -13 -67q0 -35 36 -35q37 0 68.5 37t62.5 124l39 105h39l-55 -156q-40 -113 -112.5 -162 t-162.5 -49q-111 0 -151 70q-19 35 -19 85t21 132l55 211q-80 -193 -154.5 -301.5t-150.5 -152.5t-169 -44q-91 0 -137.5 43t-46.5 124q0 62 27 143l199 604q12 36 12 58q0 44 -40 44q-70 0 -128 -161l-37 -99h-38zM50 0zM605 1246q56 79 154 242q43 74 68.5 112.5 t57.5 70.5q23 25 53 39t59 14q43 0 75 -29q27 -27 27 -63q0 -55 -59 -112q-29 -29 -64.5 -54.5t-106.5 -70.5q-144 -91 -243 -168z" />
<glyph unicode="&#xfb;" horiz-adv-x="1223" d="M49 727l51 150q72 210 275 210q185 0 185 -169q0 -67 -29 -157l-184 -552q-18 -55 -18 -87q0 -48 39 -48q61 0 147.5 125t174 332t151.5 440l23 88q180 3 297 28l-257 -913q-13 -45 -13 -67q0 -35 36 -35q37 0 68.5 37t62.5 124l39 105h39l-55 -156q-40 -113 -112.5 -162 t-162.5 -49q-111 0 -151 70q-19 35 -19 85t21 132l55 211q-80 -193 -154.5 -301.5t-150.5 -152.5t-169 -44q-91 0 -137.5 43t-46.5 124q0 62 27 143l199 604q12 36 12 58q0 44 -40 44q-70 0 -128 -161l-37 -99h-38zM50 0zM319 1278q148 64 277.5 172t211.5 229h37 q28 -144 84 -237.5t160 -163.5l-8 -29q-127 28 -214 64t-167 88q-175 -96 -371 -152z" />
<glyph unicode="&#xfc;" horiz-adv-x="1223" d="M49 727l51 150q72 210 275 210q185 0 185 -169q0 -67 -29 -157l-184 -552q-18 -55 -18 -87q0 -48 39 -48q61 0 147.5 125t174 332t151.5 440l23 88q180 3 297 28l-257 -913q-13 -45 -13 -67q0 -35 36 -35q37 0 68.5 37t62.5 124l39 105h39l-55 -156q-40 -113 -112.5 -162 t-162.5 -49q-111 0 -151 70q-19 35 -19 85t21 132l55 211q-80 -193 -154.5 -301.5t-150.5 -152.5t-169 -44q-91 0 -137.5 43t-46.5 124q0 62 27 143l199 604q12 36 12 58q0 44 -40 44q-70 0 -128 -161l-37 -99h-38zM50 0zM382 1384q0 53 24.5 92.5t65 60t87.5 20.5 q64 0 98.5 -37.5t34.5 -99.5q0 -53 -25 -92t-66 -59.5t-87 -20.5q-65 0 -98.5 37t-33.5 99zM848 1384q0 53 24.5 92.5t65 60t87.5 20.5q64 0 98.5 -37.5t34.5 -99.5q0 -53 -25 -92t-66 -59.5t-87 -20.5q-65 0 -98.5 37t-33.5 99z" />
<glyph unicode="&#xfd;" horiz-adv-x="988" d="M-222 -270q0 54 40 90t103 36q121 0 219 -140q138 66 266 187l-161 979q-10 57 -20.5 77.5t-31.5 20.5q-22 0 -43 -31t-55 -122l-36 -99h-39l51 149q41 117 104 163.5t149 46.5q88 0 137 -48.5t67 -172.5l96 -702q87 126 152.5 261t98.5 259q-82 45 -136 113t-54 147 q0 67 37 105t101 38q136 0 136 -185q0 -124 -56 -284t-148.5 -321t-199.5 -290q-103 -125 -229 -220.5t-261 -141.5q-84 -30 -144 -30q-67 0 -105 30.5t-38 84.5zM0 0zM529 1246q56 79 154 242q43 74 68.5 112.5t57.5 70.5q23 25 53 39t59 14q43 0 75 -29q27 -27 27 -63 q0 -55 -59 -112q-29 -29 -64.5 -54.5t-106.5 -70.5q-144 -91 -243 -168z" />
<glyph unicode="&#xfe;" horiz-adv-x="1196" d="M-184 -371l12 43q50 0 79.5 11.5t48 39t32.5 76.5l373 1335q-57 -129 -132.5 -230.5t-183.5 -212.5l-22 27q92 98 151.5 171.5t121 181t121.5 261.5l66 238q164 12 305 58l-233 -819q72 146 151 212t175 66q124 0 188.5 -80.5t64.5 -234.5q0 -168 -75 -356t-214.5 -316.5 t-322.5 -128.5q-57 0 -106 19t-78 52l-56 -196q-12 -42 -12 -73q0 -56 41 -77.5t129 -23.5l-12 -43l-61 2q-163 7 -263 7q-92 0 -239 -7q-40 -2 -49 -2zM348 78q35 -47 93 -47q97 0 188.5 124t148.5 307t57 346q0 96 -17.5 133.5t-50.5 37.5q-39 0 -86.5 -46.5t-94 -127.5 t-83.5 -182z" />
<glyph unicode="&#xff;" horiz-adv-x="988" d="M-222 -270q0 54 40 90t103 36q121 0 219 -140q138 66 266 187l-161 979q-10 57 -20.5 77.5t-31.5 20.5q-22 0 -43 -31t-55 -122l-36 -99h-39l51 149q41 117 104 163.5t149 46.5q88 0 137 -48.5t67 -172.5l96 -702q87 126 152.5 261t98.5 259q-82 45 -136 113t-54 147 q0 67 37 105t101 38q136 0 136 -185q0 -124 -56 -284t-148.5 -321t-199.5 -290q-103 -125 -229 -220.5t-261 -141.5q-84 -30 -144 -30q-67 0 -105 30.5t-38 84.5zM0 0zM306 1384q0 53 24.5 92.5t65 60t87.5 20.5q64 0 98.5 -37.5t34.5 -99.5q0 -53 -25 -92t-66 -59.5 t-87 -20.5q-65 0 -98.5 37t-33.5 99zM772 1384q0 53 24.5 92.5t65 60t87.5 20.5q64 0 98.5 -37.5t34.5 -99.5q0 -53 -25 -92t-66 -59.5t-87 -20.5q-65 0 -98.5 37t-33.5 99z" />
<glyph unicode="&#x152;" horiz-adv-x="2037" d="M87 463q0 232 116.5 469t325 392t469.5 155q100 0 191 -34q92 -1 297 -1h239q283 0 407 6q-42 -109 -78 -242q-21 -73 -26 -127h-45q15 86 15 145q0 96 -42.5 136.5t-138.5 40.5h-121q-71 0 -106.5 -12t-57 -46.5t-41.5 -111.5l-128 -483h151q58 0 96.5 30.5t62 76 t52.5 122.5h45q-23 -69 -54 -188l-16 -62q-25 -92 -53 -250h-45q0 11 5 63q5 37 5 63q0 46 -22.5 73t-83.5 31h-154l-131 -492q-18 -70 -18 -100q0 -29 13.5 -44t41.5 -20.5t80 -5.5h141q99 0 162.5 34t110 111t93.5 218h46q-12 -28 -34 -112l-9 -36q-35 -117 -54 -262 q-137 6 -454 6q-327 0 -500 -3q-113 -32 -215 -32q-168 0 -289 58t-185 168.5t-64 265.5zM439 436q0 -133 27 -229.5t77.5 -147.5t119.5 -51q90 0 142.5 32t73.5 114l287 1079q14 56 14 91q0 67 -43 92.5t-132 25.5q-147 0 -278 -147t-209.5 -380.5t-78.5 -478.5z" />
<glyph unicode="&#x153;" horiz-adv-x="1590" d="M12 309q0 161 94.5 342.5t262.5 304.5t376 123q89 0 140 -43.5t54 -122.5q194 174 419 174q103 0 166.5 -43t63.5 -127q0 -115 -95.5 -211.5t-239 -164.5t-299.5 -109q-12 -70 -12 -140q0 -108 40.5 -153t117.5 -45q63 0 141.5 40.5t153.5 127.5l36 -16 q-46 -73 -116.5 -135.5t-162.5 -101t-196 -38.5q-117 0 -200.5 52.5t-109.5 150.5q-129 -203 -321 -203q-148 0 -230.5 87t-82.5 251zM311 259q0 -181 119 -181q52 0 107 38.5t100 106.5q-2 24 -2 37q0 157 72.5 325t196.5 294q-4 56 -33.5 88.5t-84.5 32.5 q-116 0 -226.5 -110t-179.5 -283t-69 -348zM960 469q162 68 239 140t120 168t43 204q0 68 -49 68q-59 0 -131 -84t-133 -218.5t-89 -277.5z" />
<glyph unicode="&#x178;" horiz-adv-x="1502" d="M168 1102l53 158q38 116 110.5 167.5t177.5 51.5q134 0 210.5 -83t114 -235t66.5 -413q68 191 154 345t181 259q118 127 243 127q59 0 102 -24t65.5 -64.5t22.5 -89.5q0 -51 -24 -93t-66.5 -66.5t-95.5 -24.5q-67 0 -104 34t-37 91q0 66 43.5 117.5t110.5 71.5 q-12 10 -33 10q-60 -1 -124 -48q-58 -42 -131 -138.5t-150.5 -246.5t-142.5 -341l-113 -450q-13 -55 -13 -83q0 -37 16.5 -56t49.5 -26.5t92 -10.5l-10 -41q-114 6 -352 6q-222 0 -330 -6l10 41q75 3 112 16t59 48.5t40 111.5l112 441q-31 279 -89 474.5t-146 195.5 q-35 0 -57.5 -25.5t-37.5 -70.5l-44 -130h-45zM169 0zM600 1704q0 53 24.5 92.5t65 60.5t87.5 21q64 0 98.5 -38t34.5 -99q0 -54 -25 -93t-66 -59t-87 -20q-65 0 -98.5 36.5t-33.5 98.5zM1091 1704q0 53 24.5 92.5t65 60.5t87.5 21q64 0 98.5 -38t34.5 -99q0 -54 -25 -93 t-66 -59t-87 -20q-65 0 -98.5 36.5t-33.5 98.5z" />
<glyph unicode="&#x2c6;" horiz-adv-x="823" d="M71 1278q148 64 277.5 172t211.5 229h37q28 -144 84 -237.5t160 -163.5l-8 -29q-127 28 -214 64t-167 88q-175 -96 -371 -152z" />
<glyph unicode="&#x2dc;" horiz-adv-x="842" d="M169 1325q52 144 136.5 214.5t178.5 70.5q59 0 98 -21.5t84 -62.5q37 -33 64.5 -49.5t64.5 -16.5q41 0 76.5 28t69.5 91l37 -10q-52 -144 -137 -214.5t-178 -70.5q-59 0 -98 21.5t-84 62.5q-37 33 -64.5 49.5t-64.5 16.5q-41 0 -76.5 -28t-69.5 -91z" />
<glyph unicode="&#x2000;" horiz-adv-x="979" />
<glyph unicode="&#x2001;" horiz-adv-x="1959" />
<glyph unicode="&#x2002;" horiz-adv-x="979" />
<glyph unicode="&#x2003;" horiz-adv-x="1959" />
<glyph unicode="&#x2004;" horiz-adv-x="653" />
<glyph unicode="&#x2005;" horiz-adv-x="489" />
<glyph unicode="&#x2006;" horiz-adv-x="326" />
<glyph unicode="&#x2007;" horiz-adv-x="326" />
<glyph unicode="&#x2008;" horiz-adv-x="244" />
<glyph unicode="&#x2009;" horiz-adv-x="391" />
<glyph unicode="&#x200a;" horiz-adv-x="108" />
<glyph unicode="&#x2010;" horiz-adv-x="1036" d="M108 457l45 169h739l-45 -169h-739z" />
<glyph unicode="&#x2011;" horiz-adv-x="1036" d="M108 457l45 169h739l-45 -169h-739z" />
<glyph unicode="&#x2012;" horiz-adv-x="1036" d="M108 457l45 169h739l-45 -169h-739z" />
<glyph unicode="&#x2013;" horiz-adv-x="1414" d="M98 448l60 204h1125l-61 -204h-1124z" />
<glyph unicode="&#x2014;" horiz-adv-x="1998" d="M95 448l60 204h1710l-61 -204h-1709z" />
<glyph unicode="&#x2018;" horiz-adv-x="561" d="M248 929zM248 1079q0 129 81.5 241t223.5 176l10 -33q-93 -47 -154.5 -119.5t-67.5 -156.5q61 59 129 59q61 0 94 -28.5t33 -81.5q0 -55 -29 -102.5t-78 -76t-106 -28.5q-66 0 -101 38.5t-35 111.5z" />
<glyph unicode="&#x2019;" horiz-adv-x="551" d="M280 942zM280 1302q0 55 29 102.5t78 76t106 28.5q66 0 101 -38.5t35 -111.5q0 -129 -81.5 -241t-223.5 -176l-10 33q93 47 154.5 119.5t67.5 156.5q-61 -59 -129 -59q-61 0 -94 28.5t-33 81.5z" />
<glyph unicode="&#x201a;" horiz-adv-x="587" d="M-7 81q0 55 29 102.5t78 76t106 28.5q66 0 101 -38.5t35 -111.5q0 -129 -81.5 -241t-223.5 -176l-10 33q93 47 154.5 119.5t67.5 156.5q-61 -59 -129 -59q-61 0 -94 28.5t-33 81.5zM0 0z" />
<glyph unicode="&#x201c;" horiz-adv-x="960" d="M249 931zM249 1081q0 85 37 165t105.5 145t162.5 107l10 -33q-94 -48 -155 -120.5t-67 -155.5q61 59 129 59q57 0 88 -28.5t31 -81.5q0 -55 -28 -102.5t-75 -76t-102 -28.5q-136 0 -136 150zM652 1081q0 85 37 165t105.5 145t162.5 107l10 -33q-94 -48 -155 -120.5 t-67 -155.5q59 59 128 59q58 0 88.5 -28.5t30.5 -81.5q0 -55 -27.5 -102.5t-75 -76t-102.5 -28.5q-135 0 -135 150z" />
<glyph unicode="&#x201d;" horiz-adv-x="949" d="M286 948zM286 1308q0 55 27.5 102.5t75 76t102.5 28.5q135 0 135 -150q0 -85 -37 -165t-105.5 -145t-162.5 -107l-10 33q94 48 155 120.5t67 155.5q-59 -59 -128 -59q-58 0 -88.5 28.5t-30.5 81.5zM688 1308q0 55 28 102.5t75 76t102 28.5q136 0 136 -150q0 -85 -37 -165 t-105.5 -145t-162.5 -107l-10 33q94 48 155 120.5t67 155.5q-61 -59 -129 -59q-57 0 -88 28.5t-31 81.5z" />
<glyph unicode="&#x201e;" horiz-adv-x="983" d="M-6 81q0 55 27.5 102.5t75 76t102.5 28.5q135 0 135 -150q0 -85 -37 -165t-105.5 -145t-162.5 -107l-10 33q94 48 155 120.5t67 155.5q-59 -59 -128 -59q-58 0 -88.5 28.5t-30.5 81.5zM396 81q0 55 28 102.5t75 76t102 28.5q136 0 136 -150q0 -85 -37 -165t-105.5 -145 t-162.5 -107l-10 33q94 48 155 120.5t67 155.5q-61 -59 -129 -59q-57 0 -88 28.5t-31 81.5z" />
<glyph unicode="&#x2022;" horiz-adv-x="882" d="M122 479q0 9 2 31q9 80 54.5 147t116 106.5t150.5 39.5q74 0 134.5 -34t95 -93.5t34.5 -131.5q0 -12 -2 -34q-8 -80 -54 -146.5t-117 -105.5t-150 -39q-74 0 -134.5 34t-95 93.5t-34.5 132.5z" />
<glyph unicode="&#x2026;" horiz-adv-x="1720" d="M-1 92q0 55 26 99.5t71 70.5t100 26q66 0 102 -33t36 -92q0 -49 -27 -93t-73 -71.5t-99 -27.5q-64 0 -100 32.5t-36 88.5zM0 0zM574 92q0 55 26 99.5t71 70.5t100 26q66 0 102 -33t36 -92q0 -49 -27 -93t-73 -71.5t-99 -27.5q-64 0 -100 32.5t-36 88.5zM1148 92 q0 55 26 99.5t71 70.5t100 26q66 0 102 -33t36 -92q0 -49 -27 -93t-73 -71.5t-99 -27.5q-64 0 -100 32.5t-36 88.5z" />
<glyph unicode="&#x202f;" horiz-adv-x="391" />
<glyph unicode="&#x2039;" horiz-adv-x="787" d="M37 505l6 26q177 111 338.5 246.5t335.5 309.5h36q-41 -87 -113 -200.5t-152.5 -214.5t-143.5 -154q42 -50 83 -147.5t70 -206.5t37 -193h-37q-106 166 -216.5 297.5t-243.5 236.5z" />
<glyph unicode="&#x203a;" horiz-adv-x="784" d="M-6 -29q41 88 112.5 201t151.5 213.5t143 153.5q-41 51 -82 148.5t-70 207t-36 192.5h36q107 -167 217.5 -299t243.5 -236l-6 -26q-179 -111 -341 -247t-332 -308h-37z" />
<glyph unicode="&#x205f;" horiz-adv-x="489" />
<glyph unicode="&#x20ac;" horiz-adv-x="1339" d="M72 608l12 41h170q21 85 52 164h-179l12 41h184q72 169 185 310.5t263.5 228t322.5 86.5q132 0 215 -71q40 -34 62 -80.5t22 -97.5q0 -55 -24 -99t-64 -68.5t-86 -24.5q-57 0 -92 35.5t-35 91.5q0 70 51 126.5t124 84.5q-10 22 -47.5 39t-81.5 17q-94 0 -185.5 -78 t-169.5 -209t-134 -291h359l-35 -41h-338q-25 -75 -46 -164h249l-37 -41h-221q-31 -152 -31 -280q0 -161 45.5 -236.5t145.5 -75.5q42 0 88 13.5t70 34.5q-35 19 -57 55.5t-22 80.5q0 56 25 101.5t66.5 71.5t89.5 26q61 0 93.5 -35t32.5 -95q0 -71 -49.5 -131.5 t-126.5 -103.5q-116 -63 -266 -63q-222 0 -340 114.5t-118 347.5q0 84 19 175h-173z" />
<glyph unicode="&#x2122;" horiz-adv-x="2373" d="M326 1450q116 -6 398 -6q279 0 395 6q-14 -108 -14 -193q0 -65 6 -106h-47q-17 133 -58.5 192.5t-97.5 59.5h-74v-612q0 -60 10.5 -86t39.5 -36t96 -14v-41q-117 7 -256 7q-160 0 -258 -7v41q66 4 95 14t39.5 36t10.5 86v612h-74q-56 0 -97.5 -59.5t-57.5 -192.5h-48 q7 35 7 106q0 88 -15 193zM1211 614v41q48 4 68.5 12t28 30t7.5 73v524q0 51 -7.5 73.5t-28 30.5t-68.5 11v41q68 -6 203 -6q71 0 139 6l209 -515l192 509h134q125 0 194 6v-41q-48 -3 -68.5 -11t-28 -30.5t-7.5 -73.5v-524q0 -51 7.5 -73t28 -30t68.5 -12v-41q-98 7 -215 7 q-118 0 -197 -7v41q38 4 54.5 12t23 30.5t6.5 72.5v545l-268 -711h-33l-290 715v-549q0 -50 6.5 -72.5t23 -30.5t54.5 -12v-41q-51 7 -107 7q-75 0 -129 -7z" />
<glyph unicode="&#x25fc;" horiz-adv-x="1085" d="M0 0v1085h1085v-1085h-1085z" />
<glyph unicode="&#xfb03;" horiz-adv-x="1871" d="M-75 -385l373 1371l9 31h-200l13 41h199q40 121 96.5 210t120.5 138q143 114 347 114q160 0 265 -84q32 27 57 43q101 66 219.5 94.5t266.5 28.5q142 0 205 -56q43 -34 43 -89t-28.5 -98t-77 -67.5t-106.5 -24.5q-74 0 -113.5 36t-34.5 98q3 65 39.5 108t95.5 59h-23 q-149 0 -246 -63q-70 -45 -114 -128.5t-83 -228.5l-25 -90h298q176 3 297 29l-269 -913q-11 -34 -11 -60q0 -42 39 -42q32 0 63 35t66 126l37 99h39l-52 -150q-40 -113 -118.5 -162t-164.5 -49q-176 0 -176 172q0 68 27 154l211 720h-297l-376 -1373q-166 -3 -296 -29 l385 1402h-329l-375 -1373q-165 -3 -296 -29zM607 1058h329q68 235 185 353q-70 55 -170 55q-94 0 -161 -47q-57 -40 -97.5 -116.5t-75.5 -207.5z" />
<glyph unicode="&#xfb04;" horiz-adv-x="1894" d="M-75 -385l373 1371l9 31h-200l13 41h199q40 121 96.5 210t120.5 138q143 114 347 114q164 0 268 -87q144 111 370 111h4q140 1 253 22t222 62l-431 -1454q-8 -27 -8 -50q0 -52 42 -52q66 0 124 161l37 99h38l-51 -150q-40 -116 -113 -163.5t-160 -47.5q-93 0 -138.5 47.5 t-45.5 134.5q0 65 24 144l321 1069q10 31 10 59q0 41 -31 61t-103 20q-68 0 -125 -38q-40 -27 -67 -84t-54 -158l-45 -168h194l-12 -41h-194l-371 -1373q-165 -3 -296 -29l381 1402h-330l-375 -1373q-165 -3 -296 -29zM607 1058h330q35 123 79.5 209t106.5 142 q-70 57 -172 57q-103 0 -169 -53q-54 -41 -92.5 -116t-72.5 -202z" />
</font>
</defs>
</svg>
